<svg width="32" height="23" viewBox="0 0 32 23" fill="none" xmlns="http://www.w3.org/2000/svg">
<path d="M30.2812 13.3654C31.1096 13.3654 31.7812 12.6938 31.7812 11.8654C31.7812 11.0369 31.1096 10.3654 30.2812 10.3654L30.2812 13.3654ZM1.04568 10.8047C0.459891 11.3905 0.459891 12.3402 1.04568 12.926L10.5916 22.472C11.1774 23.0577 12.1272 23.0577 12.7129 22.472C13.2987 21.8862 13.2987 20.9364 12.7129 20.3506L4.22766 11.8654L12.7129 3.38008C13.2987 2.79429 13.2987 1.84454 12.7129 1.25876C12.1272 0.67297 11.1774 0.67297 10.5916 1.25876L1.04568 10.8047ZM30.2812 10.3654L2.10634 10.3654L2.10634 13.3654L30.2812 13.3654L30.2812 10.3654Z" fill="#2D3B66"/>
</svg>
