<svg width="44" height="44" viewBox="0 0 44 44" fill="none" xmlns="http://www.w3.org/2000/svg">
<path d="M8.8674 0.953175C8.98487 0.952868 9.10233 0.952491 9.21979 0.952049C9.54073 0.951051 9.86165 0.951067 10.1826 0.951261C10.5295 0.951294 10.8763 0.950387 11.2232 0.949611C11.9022 0.948251 12.5811 0.947797 13.2601 0.947706C13.8123 0.947627 14.3646 0.94729 14.9169 0.94677C16.4847 0.945326 18.0525 0.944569 19.6203 0.944692C19.7469 0.944702 19.7469 0.944702 19.8761 0.944712C19.9607 0.944718 20.0452 0.944725 20.1323 0.944732C21.5015 0.944798 22.8707 0.94323 24.2398 0.940915C25.6476 0.938555 27.0554 0.937426 28.4632 0.937568C29.2528 0.937622 30.0424 0.937177 30.832 0.935406C31.5044 0.933907 32.1769 0.933559 32.8493 0.934669C33.1919 0.935202 33.5345 0.935223 33.8771 0.933791C36.5179 0.923428 36.5179 0.923428 37.6356 1.30324C37.705 1.32622 37.7744 1.34921 37.8459 1.3729C39.8788 2.11275 41.4826 3.7096 42.3934 5.65086C42.8368 6.71076 42.9922 7.73178 42.9895 8.87463C42.9898 8.9921 42.9902 9.10956 42.9907 9.22703C42.9917 9.54796 42.9916 9.86888 42.9914 10.1898C42.9914 10.5367 42.9923 10.8836 42.9931 11.2304C42.9945 11.9094 42.9949 12.5883 42.995 13.2673C42.9951 13.8196 42.9954 14.3718 42.9959 14.9241C42.9974 16.4919 42.9981 18.0597 42.998 19.6275C42.998 19.7542 42.998 19.7542 42.998 19.8834C42.998 19.9679 42.998 20.0525 42.998 20.1396C42.9979 21.5087 42.9995 22.8779 43.0018 24.2471C43.0042 25.6549 43.0053 27.0627 43.0051 28.4705C43.0051 29.2601 43.0055 30.0496 43.0073 30.8392C43.0088 31.5117 43.0091 32.1841 43.008 32.8566C43.0075 33.1992 43.0075 33.5417 43.0089 33.8843C43.0193 36.5252 43.0193 36.5252 42.6395 37.6428C42.6165 37.7122 42.5935 37.7816 42.5698 37.8531C41.83 39.886 40.2331 41.4898 38.2918 42.4006C37.2319 42.844 36.2109 42.9995 35.0681 42.9968C34.9506 42.9971 34.8331 42.9975 34.7157 42.9979C34.3948 42.9989 34.0738 42.9989 33.7529 42.9987C33.406 42.9986 33.0592 42.9996 32.7123 43.0003C32.0333 43.0017 31.3544 43.0021 30.6754 43.0022C30.1231 43.0023 29.5709 43.0027 29.0186 43.0032C27.4508 43.0046 25.883 43.0054 24.3152 43.0052C24.1886 43.0052 24.1886 43.0052 24.0593 43.0052C23.9748 43.0052 23.8903 43.0052 23.8032 43.0052C22.434 43.0051 21.0648 43.0067 19.6956 43.009C18.2878 43.0114 16.88 43.0125 15.4722 43.0124C14.6827 43.0123 13.8931 43.0128 13.1035 43.0145C12.431 43.016 11.7586 43.0164 11.0861 43.0153C10.7436 43.0147 10.401 43.0147 10.0584 43.0162C7.41755 43.0265 7.41755 43.0265 6.29988 42.6467C6.19577 42.6122 6.19577 42.6122 6.08956 42.577C4.0567 41.8372 2.4529 40.2403 1.54209 38.2991C1.09872 37.2392 0.943248 36.2182 0.945943 35.0753C0.945636 34.9578 0.945258 34.8404 0.944816 34.7229C0.943818 34.402 0.943834 34.0811 0.944028 33.7601C0.944062 33.4132 0.943155 33.0664 0.942378 32.7195C0.941018 32.0406 0.940565 31.3616 0.940473 30.6827C0.940395 30.1304 0.940057 29.5781 0.939538 29.0258C0.938094 27.458 0.937336 25.8902 0.937459 24.3224C0.937465 24.238 0.937472 24.1536 0.937479 24.0666C0.937486 23.982 0.937492 23.8975 0.937499 23.8104C0.937566 22.4412 0.935997 21.0721 0.933682 19.7029C0.931322 18.2951 0.930193 16.8873 0.930335 15.4795C0.930389 14.6899 0.929944 13.9003 0.928173 13.1107C0.926674 12.4383 0.926326 11.7658 0.927436 11.0934C0.927969 10.7508 0.927991 10.4082 0.926558 10.0656C0.916195 7.42479 0.916195 7.42479 1.296 6.30711C1.31899 6.23771 1.34198 6.1683 1.36567 6.0968C2.10551 4.06393 3.70237 2.46013 5.64363 1.54933C6.70353 1.10595 7.72455 0.95048 8.8674 0.953175ZM5.39754 4.91259C5.33874 4.96218 5.27995 5.01177 5.21938 5.06287C4.1254 6.06992 3.68785 7.40814 3.59286 8.85006C3.56454 9.63375 3.57005 10.4183 3.57141 11.2024C3.57179 11.5209 3.57121 11.8394 3.57076 12.1579C3.57004 12.7802 3.57019 13.4025 3.57067 14.0247C3.57104 14.5309 3.57109 15.0371 3.57091 15.5432C3.57088 15.6155 3.57086 15.6878 3.57083 15.7623C3.57078 15.9092 3.57073 16.0561 3.57067 16.203C3.57021 17.5776 3.57074 18.9521 3.57162 20.3267C3.57236 21.5037 3.57223 22.6808 3.57147 23.8578C3.57059 25.2278 3.57025 26.5977 3.57075 27.9677C3.57081 28.114 3.57086 28.2604 3.57091 28.4067C3.57093 28.4787 3.57096 28.5507 3.57099 28.6249C3.57113 29.1299 3.57089 29.6349 3.5705 30.1399C3.57004 30.7561 3.57017 31.3723 3.57104 31.9885C3.57147 32.3023 3.57164 32.6162 3.5711 32.93C3.54987 36.1484 3.54987 36.1484 5.18829 38.8348C6.54646 40.1141 8.09885 40.3774 9.90326 40.3707C10.0653 40.3711 10.0653 40.3711 10.2307 40.3715C10.5267 40.3721 10.8227 40.3718 11.1187 40.3713C11.4394 40.3709 11.7602 40.3715 12.0809 40.3719C12.7077 40.3727 13.3345 40.3725 13.9613 40.372C14.4711 40.3717 14.9809 40.3716 15.4907 40.3718C15.5999 40.3718 15.5999 40.3718 15.7113 40.3719C15.8592 40.3719 16.0071 40.372 16.155 40.372C17.5392 40.3725 18.9234 40.372 20.3075 40.3711C21.4931 40.3704 22.6787 40.3705 23.8642 40.3712C25.2437 40.3721 26.6232 40.3725 28.0027 40.372C28.1501 40.3719 28.2974 40.3719 28.4447 40.3718C28.5172 40.3718 28.5897 40.3717 28.6644 40.3717C29.1731 40.3716 29.6818 40.3718 30.1904 40.3722C30.8111 40.3727 31.4317 40.3725 32.0523 40.3717C32.3685 40.3712 32.6846 40.3711 33.0008 40.3716C33.3446 40.3722 33.6884 40.3715 34.0322 40.3707C34.1306 40.371 34.2289 40.3714 34.3303 40.3718C36.0904 40.3638 37.5327 40.0073 38.8276 38.7544C40.4538 37.028 40.368 34.9772 40.3641 32.7475C40.3637 32.429 40.3643 32.1105 40.3647 31.792C40.3654 31.1697 40.3653 30.5475 40.3648 29.9252C40.3644 29.419 40.3644 28.9129 40.3646 28.4067C40.3646 28.2983 40.3646 28.2983 40.3646 28.1877C40.3647 28.0407 40.3647 27.8938 40.3648 27.7469C40.3653 26.3724 40.3647 24.9978 40.3639 23.6232C40.3631 22.4462 40.3632 21.2692 40.364 20.0921C40.3649 18.7222 40.3652 17.3522 40.3647 15.9822C40.3647 15.8359 40.3646 15.6896 40.3646 15.5432C40.3645 15.4712 40.3645 15.3992 40.3645 15.3251C40.3644 14.8201 40.3646 14.3151 40.365 13.8101C40.3654 13.1939 40.3653 12.5777 40.3644 11.9614C40.364 11.6476 40.3638 11.3338 40.3644 11.0199C40.3894 7.95443 40.3894 7.95443 38.9481 5.32274C38.9027 5.26818 38.8574 5.21361 38.8106 5.1574C37.7936 4.03691 36.3426 3.66156 34.8897 3.5851C34.6037 3.57923 34.3182 3.5782 34.0322 3.57926C33.9242 3.57901 33.8161 3.57875 33.7048 3.57849C33.4088 3.57781 33.1128 3.57814 32.8168 3.57865C32.496 3.57902 32.1753 3.57844 31.8546 3.578C31.2277 3.57727 30.6009 3.57742 29.9741 3.5779C29.4643 3.57827 28.9545 3.57832 28.4447 3.57814C28.3356 3.5781 28.3356 3.5781 28.2242 3.57806C28.0763 3.57801 27.9284 3.57796 27.7805 3.57791C26.3963 3.57744 25.0121 3.57797 23.6279 3.57886C22.4424 3.57959 21.2568 3.57946 20.0713 3.57871C18.6917 3.57783 17.3122 3.57748 15.9327 3.57799C15.7854 3.57804 15.6381 3.57809 15.4907 3.57814C15.4183 3.57817 15.3458 3.57819 15.2711 3.57822C14.7624 3.57836 14.2537 3.57812 13.745 3.57773C13.1244 3.57727 12.5038 3.5774 11.8831 3.57827C11.567 3.5787 11.2508 3.57888 10.9347 3.57833C10.5909 3.57774 10.2471 3.57845 9.90326 3.57926C9.75573 3.57871 9.75573 3.57871 9.60522 3.57815C8.01706 3.5854 6.63907 3.86129 5.39754 4.91259Z" fill="#F84C35"/>
<path d="M10.1543 14.7562C12.2531 14.746 12.2531 14.746 14.3943 14.7357C15.0542 14.7312 15.0542 14.7312 15.7275 14.7266C16.2694 14.7251 16.2694 14.7251 16.524 14.7249C16.6998 14.7244 16.8757 14.7232 17.0515 14.7215C18.4223 14.7091 19.6478 14.7287 20.7157 15.6995C20.7767 15.7672 20.8376 15.8349 20.9003 15.9046C20.9561 15.9655 21.012 16.0264 21.0695 16.0892C21.74 17.0408 21.717 18.1474 21.6386 19.2679C21.5745 19.6031 21.4768 19.8732 21.3105 20.1702C21.2569 20.2678 21.2569 20.2678 21.2022 20.3673C20.9084 20.8496 20.5105 21.3085 19.998 21.5647C20.0505 21.5818 20.1031 21.5988 20.1572 21.6163C20.8831 21.8749 21.2875 22.2102 21.6232 22.908C22.1307 24.0546 22.1773 25.5826 21.7427 26.7573C21.2533 27.798 20.4555 28.4687 19.4241 28.9411C18.8157 29.1594 18.2382 29.2173 17.595 29.2122C17.4717 29.2122 17.4717 29.2122 17.3459 29.2123C17.0822 29.2122 16.8186 29.2109 16.5549 29.2096C16.3912 29.2094 16.2274 29.2092 16.0636 29.2091C15.4593 29.2083 14.855 29.206 14.2507 29.2038C12.8989 29.2005 11.5471 29.1971 10.1543 29.1936C10.1543 24.4292 10.1543 19.6649 10.1543 14.7562ZM13.4355 17.3812C13.4355 18.3557 13.4355 19.3302 13.4355 20.3343C13.9828 20.3381 14.53 20.3413 15.0772 20.3433C15.2632 20.3441 15.4491 20.3452 15.635 20.3467C15.9032 20.3487 16.1714 20.3496 16.4396 20.3503C16.5219 20.3511 16.6042 20.352 16.689 20.3529C17.5135 20.374 17.5135 20.374 18.2445 20.0594C18.5916 19.6592 18.6222 19.2988 18.6291 18.7911C18.6315 18.7337 18.6339 18.6763 18.6363 18.6172C18.6414 18.1974 18.5666 17.9496 18.2753 17.6273C17.7628 17.3356 17.2917 17.349 16.7119 17.3571C16.6181 17.3575 16.5242 17.3578 16.4275 17.3582C16.1291 17.3596 15.8308 17.3627 15.5324 17.3658C15.3295 17.367 15.1267 17.3681 14.9238 17.3692C14.4277 17.3716 13.9316 17.3765 13.4355 17.3812ZM13.4355 22.9593C13.4355 24.1503 13.4355 25.3414 13.4355 26.5686C13.9828 26.5705 14.53 26.5721 15.0772 26.5731C15.2632 26.5735 15.4491 26.5741 15.635 26.5748C15.9032 26.5758 16.1714 26.5763 16.4396 26.5766C16.5219 26.577 16.6042 26.5775 16.689 26.5779C17.7155 26.6033 17.7155 26.6033 18.6035 26.1585C19.0658 25.6324 18.966 24.93 18.9316 24.2717C18.8553 23.8022 18.6288 23.5186 18.2683 23.2239C17.9393 23.0131 17.6517 22.9387 17.263 22.9406C17.1776 22.9406 17.0923 22.9407 17.0043 22.9407C16.9131 22.9415 16.8219 22.9424 16.728 22.9432C16.5868 22.9436 16.5868 22.9436 16.4428 22.9439C16.1428 22.9449 15.8427 22.9469 15.5427 22.949C15.3391 22.9498 15.1354 22.9506 14.9318 22.9512C14.433 22.9529 13.9343 22.9561 13.4355 22.9593Z" fill="#F84C35"/>
<path d="M32.2457 19.3551C33.2798 20.3514 33.7174 21.7295 33.8607 23.1233C33.8607 23.6106 33.8607 24.0979 33.8607 24.5999C31.3702 24.5999 28.8798 24.5999 26.3139 24.5999C26.4846 25.6508 26.4846 25.6508 27.0778 26.4302C27.9343 26.968 28.9025 26.99 29.8726 26.7949C30.3032 26.6702 30.6318 26.4703 30.9025 26.1123C31.0033 25.896 31.0033 25.896 31.0717 25.5843C31.965 25.5843 32.8583 25.5843 33.7787 25.5843C33.7787 26.6644 33.624 27.3427 32.8763 28.1272C31.8942 29.0584 30.4447 29.3047 29.1366 29.2881C27.5563 29.2175 25.9624 29.0241 24.753 27.8943C24.1298 27.2118 23.7147 26.4686 23.4428 25.5843C23.4227 25.521 23.4026 25.4578 23.3819 25.3926C22.9668 23.772 23.3373 21.9781 24.1715 20.5594C24.4043 20.1958 24.6901 19.8926 25.0014 19.596C25.0475 19.5493 25.0936 19.5025 25.1411 19.4544C26.9417 17.7499 30.3662 17.8878 32.2457 19.3551ZM27.0521 21.1546C26.6827 21.5687 26.3139 22.0563 26.3139 22.6312C27.8839 22.6312 29.454 22.6312 31.0717 22.6312C30.9589 21.7295 30.738 21.2956 30.0258 20.7291C29.061 20.191 27.8324 20.3795 27.0521 21.1546Z" fill="#F84C35"/>
<path d="M25.5781 15.4124C27.6355 15.4124 29.6928 15.4124 31.8125 15.4124C31.8125 16.0621 31.8125 16.7118 31.8125 17.3812C29.7551 17.3812 27.6978 17.3812 25.5781 17.3812C25.5781 16.7315 25.5781 16.0818 25.5781 15.4124Z" fill="#F84C35"/>
</svg>
