<svg width="43" height="43" viewBox="0 0 43 43" fill="none" xmlns="http://www.w3.org/2000/svg">
<path d="M8.61252 0.471822C8.72998 0.471515 8.84745 0.471137 8.96491 0.470695C9.28584 0.469697 9.60677 0.469713 9.9277 0.469907C10.2746 0.469941 10.6214 0.469034 10.9683 0.468257C11.6473 0.466897 12.3262 0.466443 13.0052 0.466352C13.5575 0.466274 14.1097 0.465936 14.662 0.465416C16.2298 0.463972 17.7976 0.463215 19.3654 0.463338C19.492 0.463348 19.492 0.463348 19.6213 0.463358C19.7058 0.463364 19.7903 0.463371 19.8774 0.463378C21.2466 0.463445 22.6158 0.461876 23.9849 0.459562C25.3927 0.457201 26.8005 0.456072 28.2084 0.456214C28.9979 0.456268 29.7875 0.455823 30.5771 0.454052C31.2496 0.452553 31.922 0.452205 32.5944 0.453315C32.937 0.453848 33.2796 0.453869 33.6222 0.452437C36.263 0.442074 36.263 0.442074 37.3807 0.821882C37.4501 0.844871 37.5195 0.86786 37.591 0.891545C39.6239 1.63139 41.2277 3.22825 42.1385 5.16951C42.5819 6.22941 42.7373 7.25043 42.7347 8.39328C42.735 8.51074 42.7353 8.62821 42.7358 8.74567C42.7368 9.0666 42.7368 9.38753 42.7366 9.70847C42.7365 10.0553 42.7374 10.4022 42.7382 10.7491C42.7396 11.428 42.74 12.107 42.7401 12.7859C42.7402 13.3382 42.7405 13.8905 42.7411 14.4428C42.7425 16.0106 42.7433 17.5783 42.7431 19.1461C42.7431 19.2728 42.7431 19.2728 42.7431 19.402C42.7431 19.4866 42.7431 19.5711 42.7431 19.6582C42.743 21.0274 42.7446 22.3965 42.7469 23.7657C42.7493 25.1735 42.7504 26.5813 42.7503 27.9891C42.7502 28.7787 42.7506 29.5683 42.7524 30.3579C42.7539 31.0303 42.7543 31.7028 42.7532 32.3752C42.7526 32.7178 42.7526 33.0604 42.754 33.403C42.7644 36.0438 42.7644 36.0438 42.3846 37.1615C42.3616 37.2309 42.3386 37.3003 42.3149 37.3718C41.5751 39.4047 39.9782 41.0085 38.037 41.9193C36.9771 42.3626 35.956 42.5181 34.8132 42.5154C34.6957 42.5157 34.5783 42.5161 34.4608 42.5165C34.1399 42.5175 33.8189 42.5175 33.498 42.5173C33.1511 42.5173 32.8043 42.5182 32.4574 42.519C31.7784 42.5203 31.0995 42.5208 30.4205 42.5209C29.8683 42.521 29.316 42.5213 28.7637 42.5218C27.1959 42.5233 25.6281 42.524 24.0603 42.5239C23.9337 42.5239 23.9337 42.5239 23.8045 42.5239C23.7199 42.5239 23.6354 42.5239 23.5483 42.5239C22.1791 42.5238 20.8099 42.5254 19.4408 42.5277C18.033 42.53 16.6252 42.5312 15.2174 42.531C14.4278 42.531 13.6382 42.5314 12.8486 42.5332C12.1762 42.5347 11.5037 42.535 10.8313 42.5339C10.4887 42.5334 10.1461 42.5334 9.80352 42.5348C7.16267 42.5452 7.16267 42.5452 6.04499 42.1654C5.94089 42.1309 5.94089 42.1309 5.83468 42.0957C3.80182 41.3558 2.19801 39.759 1.28721 37.8177C0.843837 36.7578 0.688365 35.7368 0.69106 34.594C0.690753 34.4765 0.690375 34.359 0.689933 34.2416C0.688935 33.9206 0.688952 33.5997 0.689146 33.2788C0.689179 32.9319 0.688272 32.585 0.687495 32.2382C0.686135 31.5592 0.685682 30.8803 0.68559 30.2013C0.685512 29.649 0.685174 29.0967 0.684655 28.5445C0.683211 26.9767 0.682453 25.4089 0.682576 23.8411C0.682583 23.7567 0.682589 23.6722 0.682596 23.5852C0.682603 23.5007 0.682609 23.4161 0.682616 23.329C0.682683 21.9599 0.681114 20.5907 0.6788 19.2215C0.676439 17.8137 0.675311 16.4059 0.675452 14.9981C0.675506 14.2085 0.675061 13.419 0.67329 12.6294C0.671791 11.9569 0.671443 11.2845 0.672553 10.612C0.673086 10.2694 0.673108 9.92687 0.671675 9.58428C0.661313 6.94343 0.661313 6.94343 1.04112 5.82575C1.06411 5.75635 1.0871 5.68695 1.11078 5.61544C1.85063 3.58258 3.44748 1.97877 5.38875 1.06797C6.44865 0.624599 7.46967 0.469127 8.61252 0.471822ZM5.14265 4.43123C5.08386 4.48083 5.02507 4.53042 4.96449 4.58151C3.87052 5.58857 3.43296 6.92678 3.33798 8.36871C3.30966 9.1524 3.31517 9.93695 3.31653 10.721C3.31691 11.0396 3.31633 11.3581 3.31588 11.6766C3.31515 12.2988 3.31531 12.9211 3.31578 13.5434C3.31615 14.0495 3.3162 14.5557 3.31603 15.0619C3.316 15.1342 3.31597 15.2064 3.31595 15.2809C3.3159 15.4278 3.31584 15.5748 3.31579 15.7217C3.31532 17.0962 3.31586 18.4708 3.31674 19.8454C3.31747 21.0224 3.31735 22.1994 3.31659 23.3765C3.31571 24.7464 3.31537 26.1164 3.31587 27.4863C3.31592 27.6327 3.31597 27.779 3.31603 27.9254C3.31605 27.9974 3.31608 28.0693 3.3161 28.1435C3.31624 28.6485 3.31601 29.1535 3.31562 29.6585C3.31516 30.2747 3.31529 30.8909 3.31616 31.5071C3.31659 31.821 3.31676 32.1348 3.31621 32.4486C3.29498 35.6671 3.29498 35.6671 4.93341 38.3535C6.29158 39.6328 7.84397 39.896 9.64838 39.8893C9.81044 39.8897 9.81044 39.8897 9.97579 39.8901C10.2718 39.8908 10.5678 39.8905 10.8638 39.8899C11.1845 39.8896 11.5053 39.8901 11.826 39.8906C12.4528 39.8913 13.0797 39.8912 13.7065 39.8907C14.2163 39.8903 14.7261 39.8903 15.2359 39.8904C15.345 39.8905 15.345 39.8905 15.4564 39.8905C15.6043 39.8906 15.7522 39.8906 15.9001 39.8907C17.2843 39.8912 18.6685 39.8906 20.0527 39.8897C21.2382 39.889 22.4238 39.8891 23.6093 39.8899C24.9888 39.8908 26.3684 39.8911 27.7479 39.8906C27.8952 39.8906 28.0425 39.8905 28.1899 39.8904C28.2623 39.8904 28.3348 39.8904 28.4095 39.8904C28.9182 39.8902 29.4269 39.8905 29.9356 39.8909C30.5562 39.8913 31.1768 39.8912 31.7974 39.8903C32.1136 39.8899 32.4297 39.8897 32.7459 39.8903C33.0897 39.8908 33.4335 39.8901 33.7773 39.8893C33.8757 39.8897 33.974 39.8901 34.0754 39.8904C35.8355 39.8824 37.2778 39.526 38.5727 38.2731C40.1989 36.5466 40.1131 34.4958 40.1092 32.2662C40.1088 31.9477 40.1094 31.6292 40.1098 31.3107C40.1106 30.6884 40.1104 30.0661 40.1099 29.4438C40.1096 28.9377 40.1095 28.4315 40.1097 27.9254C40.1097 27.8169 40.1097 27.8169 40.1098 27.7063C40.1098 27.5594 40.1099 27.4125 40.1099 27.2656C40.1104 25.891 40.1099 24.5164 40.109 23.1419C40.1082 21.9648 40.1084 20.7878 40.1091 19.6108C40.11 18.2408 40.1103 16.8708 40.1098 15.5009C40.1098 15.3545 40.1097 15.2082 40.1097 15.0619C40.1097 14.9899 40.1096 14.9179 40.1096 14.8437C40.1095 14.3387 40.1097 13.8337 40.1101 13.3287C40.1106 12.7125 40.1104 12.0963 40.1096 11.4801C40.1091 11.1663 40.109 10.8524 40.1095 10.5386C40.1345 7.47307 40.1345 7.47307 38.6932 4.84139C38.6478 4.78682 38.6025 4.73226 38.5557 4.67604C37.5387 3.55556 36.0877 3.18021 34.6348 3.10374C34.3489 3.09788 34.0633 3.09684 33.7773 3.09791C33.6693 3.09765 33.5612 3.0974 33.4499 3.09713C33.1539 3.09646 32.8579 3.09678 32.5619 3.09729C32.2412 3.09767 31.9204 3.09709 31.5997 3.09664C30.9729 3.09591 30.3461 3.09607 29.7193 3.09654C29.2095 3.09692 28.6997 3.09697 28.1899 3.09679C28.0807 3.09675 28.0807 3.09675 27.9693 3.09671C27.8214 3.09666 27.6735 3.09661 27.5256 3.09655C26.1414 3.09608 24.7572 3.09662 23.373 3.0975C22.1875 3.09824 21.0019 3.09811 19.8164 3.09735C18.4369 3.09647 17.0574 3.09613 15.6778 3.09663C15.5305 3.09668 15.3832 3.09674 15.2359 3.09679C15.1634 3.09681 15.0909 3.09684 15.0162 3.09686C14.5075 3.097 13.9988 3.09677 13.4901 3.09638C12.8695 3.09592 12.2489 3.09605 11.6283 3.09692C11.3121 3.09735 10.996 3.09752 10.6798 3.09698C10.336 3.09639 9.99219 3.09709 9.64838 3.09791C9.50085 3.09736 9.50085 3.09736 9.35034 3.0968C7.76218 3.10405 6.38419 3.37993 5.14265 4.43123Z" fill="#2D3B66"/>
<path d="M9.90039 14.2748C11.9992 14.2647 11.9992 14.2647 14.1404 14.2543C14.8003 14.2498 14.8003 14.2498 15.4736 14.2453C16.0155 14.2438 16.0155 14.2438 16.2701 14.2435C16.4459 14.243 16.6218 14.2419 16.7976 14.2402C18.1684 14.2278 19.3939 14.2473 20.4618 15.2182C20.5227 15.2859 20.5837 15.3535 20.6464 15.4233C20.7022 15.4842 20.7581 15.5451 20.8156 15.6078C21.4861 16.5595 21.4631 17.666 21.3847 18.7865C21.3206 19.1218 21.2229 19.3919 21.0566 19.6889C21.003 19.7864 21.003 19.7864 20.9483 19.8859C20.6545 20.3683 20.2566 20.8271 19.7441 21.0834C19.7966 21.1004 19.8492 21.1174 19.9033 21.135C20.6292 21.3935 21.0336 21.7289 21.3693 22.4266C21.8768 23.5732 21.9234 25.1013 21.4888 26.276C20.9994 27.3167 20.2016 27.9873 19.1702 28.4597C18.5618 28.6781 17.9843 28.7359 17.3411 28.7309C17.2178 28.7309 17.2178 28.7309 17.092 28.7309C16.8283 28.7308 16.5647 28.7296 16.301 28.7283C16.1373 28.728 15.9735 28.7278 15.8097 28.7278C15.2054 28.7269 14.6011 28.7246 13.9968 28.7225C12.645 28.7191 11.2932 28.7157 9.90039 28.7122C9.90039 23.9479 9.90039 19.1835 9.90039 14.2748ZM13.1816 16.8998C13.1816 17.8743 13.1816 18.8489 13.1816 19.8529C13.7289 19.8567 14.2761 19.86 14.8233 19.8619C15.0093 19.8628 15.1952 19.8639 15.3811 19.8653C15.6493 19.8673 15.9175 19.8682 16.1857 19.8689C16.268 19.8698 16.3503 19.8706 16.4351 19.8715C17.2596 19.8926 17.2596 19.8926 17.9905 19.5781C18.3377 19.1778 18.3683 18.8174 18.3752 18.3097C18.3776 18.2524 18.3799 18.195 18.3824 18.1359C18.3875 17.7161 18.3127 17.4682 18.0214 17.1459C17.5089 16.8542 17.0378 16.8676 16.458 16.8758C16.3642 16.8761 16.2703 16.8765 16.1736 16.8768C15.8752 16.8782 15.5769 16.8813 15.2785 16.8844C15.0756 16.8857 14.8728 16.8868 14.6699 16.8878C14.1738 16.8903 13.6777 16.8951 13.1816 16.8998ZM13.1816 22.4779C13.1816 23.669 13.1816 24.8601 13.1816 26.0873C13.7289 26.0891 14.2761 26.0908 14.8233 26.0918C15.0093 26.0922 15.1952 26.0927 15.3811 26.0934C15.6493 26.0944 15.9175 26.0949 16.1857 26.0953C16.268 26.0957 16.3503 26.0961 16.4351 26.0965C17.4616 26.1219 17.4616 26.1219 18.3496 25.6771C18.8118 25.151 18.712 24.4486 18.6777 23.7904C18.6014 23.3208 18.3749 23.0372 18.0144 22.7426C17.6854 22.5318 17.3978 22.4574 17.0091 22.4593C16.9237 22.4593 16.8383 22.4593 16.7504 22.4593C16.6592 22.4602 16.568 22.461 16.4741 22.4619C16.3329 22.4622 16.3329 22.4622 16.1889 22.4626C15.8889 22.4635 15.5888 22.4656 15.2888 22.4676C15.0851 22.4685 14.8815 22.4692 14.6779 22.4699C14.1791 22.4716 13.6804 22.4748 13.1816 22.4779Z" fill="#2D3B66"/>
<path d="M31.9928 18.8736C33.0268 19.87 33.4645 21.2481 33.6078 22.6419C33.6078 23.1292 33.6078 23.6164 33.6078 24.1185C31.1173 24.1185 28.6269 24.1185 26.0609 24.1185C26.2317 25.1694 26.2317 25.1694 26.8249 25.9488C27.6814 26.4866 28.6496 26.5085 29.6197 26.3134C30.0503 26.1888 30.3789 25.9888 30.6495 25.6309C30.7504 25.4146 30.7504 25.4146 30.8187 25.1028C31.712 25.1028 32.6054 25.1028 33.5257 25.1028C33.5257 26.1829 33.371 26.8613 32.6234 27.6458C31.6413 28.577 30.1917 28.8233 28.8836 28.8067C27.3034 28.7361 25.7094 28.5427 24.5001 27.4128C23.8769 26.7304 23.4618 25.9872 23.1899 25.1028C23.1698 25.0396 23.1497 24.9764 23.129 24.9112C22.7139 23.2906 23.0844 21.4967 23.9186 20.0779C24.1514 19.7144 24.4371 19.4111 24.7485 19.1146C24.7946 19.0679 24.8407 19.0211 24.8882 18.973C26.6888 17.2685 30.1133 17.4064 31.9928 18.8736ZM26.7992 20.6732C26.4297 21.0873 26.0609 21.5749 26.0609 22.1497C27.631 22.1497 29.2011 22.1497 30.8187 22.1497C30.706 21.2481 30.485 20.8142 29.7728 20.2477C28.8081 19.7096 27.5795 19.8981 26.7992 20.6732Z" fill="#2D3B66"/>
<path d="M25.3223 14.9312C27.3796 14.9312 29.4369 14.9312 31.5566 14.9312C31.5566 15.5808 31.5566 16.2305 31.5566 16.8999C29.4993 16.8999 27.4419 16.8999 25.3223 16.8999C25.3223 16.2502 25.3223 15.6005 25.3223 14.9312Z" fill="#2D3B66"/>
</svg>
