<svg width="1427" height="258" viewBox="0 0 1427 258" fill="none" xmlns="http://www.w3.org/2000/svg">
<path d="M375.021 172.145C372.414 172.145 369.467 171.975 366.181 171.635C362.894 171.295 358.701 170.955 353.601 170.615C348.501 170.389 341.814 170.275 333.541 170.275C331.047 167.102 329.801 163.475 329.801 159.395C333.541 159.395 336.204 158.772 337.791 157.525C339.491 156.165 340.341 153.899 340.341 150.725V70.8253C340.341 67.7653 339.491 65.6119 337.791 64.3653C336.204 63.0053 333.541 62.3253 329.801 62.3253C329.801 58.0186 331.047 54.4486 333.541 51.6153C344.761 51.6153 354.224 51.2753 361.931 50.5953C369.751 49.9153 374.907 49.5753 377.401 49.5753C387.261 49.5753 395.761 51.1619 402.901 54.3353C410.041 57.3953 415.934 61.6453 420.581 67.0853C425.227 72.4119 428.684 78.6453 430.951 85.7853C433.217 92.8119 434.351 100.349 434.351 108.395C434.351 117.122 433.217 125.339 430.951 133.045C428.684 140.752 425.114 147.552 420.241 153.445C415.481 159.225 409.361 163.815 401.881 167.215C394.401 170.502 385.447 172.145 375.021 172.145ZM373.661 158.035C379.894 158.035 385.277 156.505 389.811 153.445C394.344 150.385 397.857 145.399 400.351 138.485C402.844 131.572 404.091 122.392 404.091 110.945C404.091 94.3986 401.201 82.3286 395.421 74.7353C389.641 67.0286 381.934 63.1753 372.301 63.1753C371.507 63.1753 370.771 63.1753 370.091 63.1753C369.411 63.1753 368.787 63.2886 368.221 63.5153V157.695C369.127 157.809 370.034 157.922 370.941 158.035C371.961 158.035 372.867 158.035 373.661 158.035ZM494.015 171.805C481.322 171.805 471.179 167.782 463.585 159.735C456.105 151.689 452.365 140.469 452.365 126.075C452.365 116.215 454.235 107.715 457.975 100.575C461.715 93.3219 466.759 87.7686 473.105 83.9153C479.565 80.0619 486.875 78.1353 495.035 78.1353C505.235 78.1353 513.395 81.1386 519.515 87.1453C525.749 93.0386 528.865 101.369 528.865 112.135C528.865 116.442 528.129 120.239 526.655 123.525C525.295 126.699 522.405 128.285 517.985 128.285H481.265C481.605 137.239 483.645 143.585 487.385 147.325C491.239 151.065 496.225 152.935 502.345 152.935C506.199 152.935 509.769 152.369 513.055 151.235C516.342 149.989 519.402 148.289 522.235 146.135C523.255 147.042 524.049 148.459 524.615 150.385C525.295 152.199 525.635 153.729 525.635 154.975C525.635 156.789 524.332 159.055 521.725 161.775C519.232 164.382 515.605 166.705 510.845 168.745C506.199 170.785 500.589 171.805 494.015 171.805ZM481.265 115.365H498.435C500.362 115.365 501.552 114.629 502.005 113.155C502.572 111.682 502.855 109.869 502.855 107.715C502.855 100.462 501.949 95.7019 500.135 93.4353C498.435 91.0553 496.395 89.8653 494.015 89.8653C492.089 89.8653 490.162 90.6019 488.235 92.0753C486.309 93.5486 484.722 96.1553 483.475 99.8953C482.229 103.522 481.492 108.679 481.265 115.365ZM588.013 171.805C575.32 171.805 565.177 167.782 557.583 159.735C550.103 151.689 546.363 140.469 546.363 126.075C546.363 116.215 548.233 107.715 551.973 100.575C555.713 93.3219 560.757 87.7686 567.103 83.9153C573.563 80.0619 580.873 78.1353 589.033 78.1353C599.233 78.1353 607.393 81.1386 613.513 87.1453C619.747 93.0386 622.863 101.369 622.863 112.135C622.863 116.442 622.127 120.239 620.653 123.525C619.293 126.699 616.403 128.285 611.983 128.285H575.263C575.603 137.239 577.643 143.585 581.383 147.325C585.237 151.065 590.223 152.935 596.343 152.935C600.197 152.935 603.767 152.369 607.053 151.235C610.34 149.989 613.4 148.289 616.233 146.135C617.253 147.042 618.047 148.459 618.613 150.385C619.293 152.199 619.633 153.729 619.633 154.975C619.633 156.789 618.33 159.055 615.723 161.775C613.23 164.382 609.603 166.705 604.843 168.745C600.197 170.785 594.587 171.805 588.013 171.805ZM575.263 115.365H592.433C594.36 115.365 595.55 114.629 596.003 113.155C596.57 111.682 596.853 109.869 596.853 107.715C596.853 100.462 595.947 95.7019 594.133 93.4353C592.433 91.0553 590.393 89.8653 588.013 89.8653C586.087 89.8653 584.16 90.6019 582.233 92.0753C580.307 93.5486 578.72 96.1553 577.473 99.8953C576.227 103.522 575.49 108.679 575.263 115.365ZM644.263 202.575C643.017 201.329 641.997 199.969 641.203 198.495C640.523 197.022 640.183 195.379 640.183 193.565C643.583 193.565 645.737 192.829 646.643 191.355C647.663 189.882 648.173 187.502 648.173 184.215V102.785C648.173 99.8386 647.323 97.6853 645.623 96.3253C644.037 94.9653 641.09 94.2853 636.783 94.2853V86.6353C639.277 85.1619 642.223 83.8019 645.623 82.5553C649.137 81.3086 652.537 80.3453 655.823 79.6653C659.11 78.8719 661.717 78.4753 663.643 78.4753C665.91 78.4753 667.78 78.9286 669.253 79.8353C670.84 80.7419 671.973 82.5553 672.653 85.2753C675.26 82.7819 678.32 81.0253 681.833 80.0053C685.46 78.9853 689.257 78.4753 693.223 78.4753C699.23 78.4753 704.84 80.0619 710.053 83.2353C715.267 86.2953 719.46 90.9419 722.633 97.1753C725.92 103.409 727.563 111.342 727.563 120.975C727.563 131.742 725.467 140.979 721.273 148.685C717.193 156.279 711.64 162.115 704.613 166.195C697.7 170.162 689.993 172.145 681.493 172.145C680.587 172.145 679.567 172.089 678.433 171.975C677.3 171.975 676.11 171.919 674.863 171.805V184.215C674.863 187.502 676.053 189.882 678.433 191.355C680.813 192.829 683.25 193.565 685.743 193.565C685.743 196.965 684.44 199.969 681.833 202.575H644.263ZM681.323 159.735C685.97 159.735 689.937 157.015 693.223 151.575C696.51 146.135 698.153 137.295 698.153 125.055C698.153 117.235 697.303 111.059 695.603 106.525C694.017 101.879 691.807 98.5919 688.973 96.6653C686.14 94.6253 683.023 93.6053 679.623 93.6053C677.81 93.6053 676.223 93.9453 674.863 94.6253V158.035C676.79 159.169 678.943 159.735 681.323 159.735ZM767.914 66.0653C763.041 66.0653 759.131 64.6486 756.184 61.8153C753.351 58.8686 751.934 54.9586 751.934 50.0853C751.934 45.3253 753.408 41.4719 756.354 38.5253C759.414 35.5786 763.381 34.1053 768.254 34.1053C773.241 34.1053 777.151 35.5786 779.984 38.5253C782.931 41.4719 784.404 45.3253 784.404 50.0853C784.404 54.9586 782.874 58.8686 779.814 61.8153C776.868 64.6486 772.901 66.0653 767.914 66.0653ZM748.874 170.275C747.628 169.029 746.664 167.669 745.984 166.195C745.304 164.722 744.964 163.022 744.964 161.095C748.251 161.095 750.688 160.415 752.274 159.055C753.861 157.582 754.654 155.145 754.654 151.745V102.445C754.654 99.4986 753.918 97.2886 752.444 95.8153C751.084 94.3419 748.081 93.6053 743.434 93.6053V86.1253C745.134 85.1053 747.741 83.9719 751.254 82.7253C754.768 81.3653 758.564 80.2319 762.644 79.3253C766.838 78.4186 770.578 77.9653 773.864 77.9653C776.471 77.9653 778.341 78.5886 779.474 79.8353C780.608 80.9686 781.174 82.9519 781.174 85.7853V151.915C781.174 155.315 782.024 157.695 783.724 159.055C785.424 160.415 787.918 161.095 791.204 161.095C791.204 163.022 790.864 164.722 790.184 166.195C789.504 167.669 788.541 169.029 787.294 170.275H748.874ZM886.153 171.975C879.92 171.975 874.933 170.672 871.193 168.065C867.453 165.345 864.393 161.945 862.013 157.865C859.747 153.785 857.707 149.649 855.893 145.455C854.08 141.149 852.153 137.239 850.113 133.725C848.073 130.212 845.41 127.832 842.123 126.585V152.595C842.123 155.882 842.803 158.262 844.163 159.735C845.637 161.095 848.13 161.775 851.643 161.775C851.643 163.589 851.247 165.232 850.453 166.705C849.773 168.179 848.81 169.539 847.563 170.785H810.163C807.443 168.405 806.083 165.402 806.083 161.775C809.483 161.775 811.863 161.095 813.223 159.735C814.697 158.262 815.433 155.882 815.433 152.595V60.4553C815.433 57.8486 814.697 55.8086 813.223 54.3353C811.75 52.7486 808.69 51.9553 804.043 51.9553V45.1553C806.877 43.6819 810.163 42.3219 813.903 41.0753C817.757 39.8286 821.553 38.8086 825.293 38.0153C829.033 37.2219 832.093 36.8253 834.473 36.8253C837.193 36.8253 839.12 37.4486 840.253 38.6953C841.5 39.8286 842.123 41.8686 842.123 44.8153V120.465L860.823 101.085C861.503 100.405 862.183 99.6119 862.863 98.7053C863.657 97.6853 864.053 96.7786 864.053 95.9853C864.053 94.3986 862.807 92.9253 860.313 91.5653C857.933 90.2053 855.61 89.5253 853.343 89.5253C853.343 85.4453 854.647 81.9886 857.253 79.1553H895.503C896.863 80.5153 897.713 82.1019 898.053 83.9153C898.507 85.7286 898.733 87.5986 898.733 89.5253C895.673 89.5253 893.35 90.0353 891.763 91.0553C890.29 91.9619 888.93 92.9819 887.683 94.1153L861.843 119.615C866.037 120.295 869.55 121.655 872.383 123.695C875.217 125.735 877.88 128.965 880.373 133.385C883.887 139.619 886.607 144.549 888.533 148.175C890.573 151.689 892.443 154.352 894.143 156.165C895.957 157.979 898.337 159.395 901.283 160.415L901.453 164.495C901.113 166.875 899.527 168.745 896.693 170.105C893.86 171.352 890.347 171.975 886.153 171.975ZM942.255 171.465C933.755 171.465 926.841 169.142 921.515 164.495C916.301 159.735 913.695 153.672 913.695 146.305C913.695 138.939 916.075 132.989 920.835 128.455C925.708 123.922 933.188 121.655 943.275 121.655C946.561 121.655 950.018 121.995 953.645 122.675C957.271 123.242 960.218 124.149 962.485 125.395V102.785C962.485 98.0253 961.238 94.7386 958.745 92.9253C956.365 90.9986 953.418 90.0353 949.905 90.0353C946.165 90.0353 943.105 90.9419 940.725 92.7553C942.991 93.5486 944.635 94.7953 945.655 96.4953C946.675 98.0819 947.185 99.8386 947.185 101.765C947.185 105.505 945.825 108.509 943.105 110.775C940.498 112.929 937.268 114.005 933.415 114.005C929.108 114.005 925.651 112.759 923.045 110.265C920.438 107.659 919.135 104.429 919.135 100.575C919.135 96.7219 920.438 93.0953 923.045 89.6953C925.651 86.1819 929.675 83.2919 935.115 81.0253C940.668 78.7586 947.808 77.6253 956.535 77.6253C979.315 77.6253 990.705 86.6353 990.705 104.655V149.705C990.705 155.145 993.311 158.432 998.525 159.565V165.005C997.051 167.159 994.558 168.802 991.045 169.935C987.531 170.955 984.131 171.465 980.845 171.465C973.138 171.465 967.698 168.802 964.525 163.475C962.258 165.515 959.255 167.385 955.515 169.085C951.775 170.672 947.355 171.465 942.255 171.465ZM953.305 157.695C954.891 157.695 956.535 157.469 958.235 157.015C959.935 156.449 961.351 155.769 962.485 154.975V138.485C961.351 137.692 959.878 137.012 958.065 136.445C956.365 135.879 954.665 135.595 952.965 135.595C950.018 135.595 947.468 136.559 945.315 138.485C943.161 140.299 942.085 143.189 942.085 147.155C942.085 150.215 943.105 152.765 945.145 154.805C947.185 156.732 949.905 157.695 953.305 157.695ZM1042.06 171.465C1033.56 171.465 1026.65 169.142 1021.32 164.495C1016.11 159.735 1013.5 153.672 1013.5 146.305C1013.5 138.939 1015.88 132.989 1020.64 128.455C1025.52 123.922 1033 121.655 1043.08 121.655C1046.37 121.655 1049.83 121.995 1053.45 122.675C1057.08 123.242 1060.03 124.149 1062.29 125.395V102.785C1062.29 98.0253 1061.05 94.7386 1058.55 92.9253C1056.17 90.9986 1053.23 90.0353 1049.71 90.0353C1045.97 90.0353 1042.91 90.9419 1040.53 92.7553C1042.8 93.5486 1044.44 94.7953 1045.46 96.4953C1046.48 98.0819 1046.99 99.8386 1046.99 101.765C1046.99 105.505 1045.63 108.509 1042.91 110.775C1040.31 112.929 1037.08 114.005 1033.22 114.005C1028.92 114.005 1025.46 112.759 1022.85 110.265C1020.25 107.659 1018.94 104.429 1018.94 100.575C1018.94 96.7219 1020.25 93.0953 1022.85 89.6953C1025.46 86.1819 1029.48 83.2919 1034.92 81.0253C1040.48 78.7586 1047.62 77.6253 1056.34 77.6253C1079.12 77.6253 1090.51 86.6353 1090.51 104.655V149.705C1090.51 155.145 1093.12 158.432 1098.33 159.565V165.005C1096.86 167.159 1094.37 168.802 1090.85 169.935C1087.34 170.955 1083.94 171.465 1080.65 171.465C1072.95 171.465 1067.51 168.802 1064.33 163.475C1062.07 165.515 1059.06 167.385 1055.32 169.085C1051.58 170.672 1047.16 171.465 1042.06 171.465ZM1053.11 157.695C1054.7 157.695 1056.34 157.469 1058.04 157.015C1059.74 156.449 1061.16 155.769 1062.29 154.975V138.485C1061.16 137.692 1059.69 137.012 1057.87 136.445C1056.17 135.879 1054.47 135.595 1052.77 135.595C1049.83 135.595 1047.28 136.559 1045.12 138.485C1042.97 140.299 1041.89 143.189 1041.89 147.155C1041.89 150.215 1042.91 152.765 1044.95 154.805C1046.99 156.732 1049.71 157.695 1053.11 157.695Z" fill="#2D3B66"/>
<mask id="path-2-outside-1_331_7" maskUnits="userSpaceOnUse" x="727.404" y="9.22904" width="80.3113" height="80.3113" fill="black">
<rect fill="white" x="727.404" y="9.22904" width="80.3113" height="80.3113"/>
<path fill-rule="evenodd" clip-rule="evenodd" d="M774.567 48.3344C800.273 50.8963 796.252 65.1664 772.989 53.9338C789.353 73.9224 776.417 81.1706 767.913 56.7778C765.348 82.4831 751.077 78.463 762.313 55.2008C742.322 71.5656 735.074 58.6316 759.469 50.125C733.763 47.5631 737.785 33.2928 761.047 44.5259C744.683 24.5372 757.619 17.2887 766.124 41.6811C768.688 15.9764 782.959 19.9966 771.723 43.2588C791.715 26.8935 798.962 39.8278 774.567 48.3344Z"/>
</mask>
<path fill-rule="evenodd" clip-rule="evenodd" d="M774.567 48.3344C800.273 50.8963 796.252 65.1664 772.989 53.9338C789.353 73.9224 776.417 81.1706 767.913 56.7778C765.348 82.4831 751.077 78.463 762.313 55.2008C742.322 71.5656 735.074 58.6316 759.469 50.125C733.763 47.5631 737.785 33.2928 761.047 44.5259C744.683 24.5372 757.619 17.2887 766.124 41.6811C768.688 15.9764 782.959 19.9966 771.723 43.2588C791.715 26.8935 798.962 39.8278 774.567 48.3344Z" fill="#F84C35"/>
<path d="M774.567 48.3344L773.579 45.5017L774.27 51.3196L774.567 48.3344ZM772.989 53.9338L774.294 51.2322L770.668 55.8341L772.989 53.9338ZM767.913 56.7778L770.745 55.7901L764.928 56.4799L767.913 56.7778ZM762.313 55.2008L765.015 56.5056L760.413 52.8794L762.313 55.2008ZM759.469 50.125L760.457 52.9578L759.767 47.1398L759.469 50.125ZM761.047 44.5259L759.743 47.2274L763.369 42.6255L761.047 44.5259ZM766.124 41.6811L763.291 42.6687L769.109 41.9789L766.124 41.6811ZM771.723 43.2588L769.022 41.954L773.623 45.5802L771.723 43.2588ZM774.27 51.3196C777.345 51.6261 779.933 52.1036 782.062 52.6703C783.126 52.9534 784.07 53.2575 784.899 53.5711C785.73 53.885 786.438 54.2058 787.032 54.5207C787.329 54.6779 787.595 54.8324 787.832 54.9823C788.07 55.1323 788.275 55.2762 788.453 55.412C788.63 55.5478 788.775 55.673 788.892 55.785C789.01 55.8972 789.095 55.9921 789.155 56.067C789.215 56.1421 789.245 56.191 789.256 56.2112C789.267 56.2313 789.256 56.2157 789.24 56.1643C789.225 56.1117 789.205 56.0219 789.202 55.9009C789.2 55.8407 789.203 55.7751 789.211 55.7054C789.22 55.6356 789.234 55.5644 789.254 55.4933C789.274 55.4221 789.299 55.3541 789.328 55.2901C789.357 55.2262 789.389 55.1689 789.422 55.1184C789.488 55.0169 789.552 54.9508 789.593 54.9142C789.632 54.8784 789.65 54.871 789.63 54.8824C789.61 54.8938 789.559 54.92 789.469 54.9527C789.378 54.9854 789.256 55.0219 789.097 55.0563C788.939 55.0906 788.75 55.1215 788.527 55.1449C788.305 55.1682 788.055 55.1835 787.774 55.1875C787.493 55.1916 787.186 55.1845 786.851 55.1637C786.179 55.122 785.407 55.0259 784.536 54.8603C783.664 54.6949 782.7 54.4614 781.645 54.1477C779.534 53.5197 777.077 52.5761 774.294 51.2322L771.685 56.6353C777.719 59.549 782.72 60.9186 786.478 61.1521C788.343 61.268 790.072 61.1151 791.51 60.5949C792.92 60.0845 794.49 59.0311 795.029 57.1208C795.567 55.2103 794.778 53.4921 793.841 52.3203C792.886 51.1259 791.492 50.0931 789.841 49.2186C786.513 47.4561 781.533 46.0137 774.865 45.3492L774.27 51.3196ZM770.668 55.8341C772.626 58.2255 774.118 60.3933 775.222 62.2995C775.774 63.2519 776.227 64.1344 776.591 64.9427C776.956 65.7517 777.23 66.4793 777.428 67.1224C777.526 67.4433 777.605 67.7407 777.667 68.0144C777.729 68.2883 777.772 68.5356 777.802 68.7569C777.831 68.9783 777.845 69.1695 777.849 69.3316C777.853 69.4941 777.846 69.6214 777.835 69.7167C777.824 69.8124 777.811 69.8679 777.804 69.8902C777.798 69.9124 777.801 69.8934 777.827 69.8462C777.853 69.7979 777.902 69.7205 777.985 69.6327C778.027 69.5891 778.075 69.5446 778.13 69.5014C778.185 69.4581 778.246 69.4177 778.31 69.3816C778.375 69.3455 778.44 69.3152 778.506 69.2906C778.572 69.266 778.635 69.2481 778.694 69.2356C778.812 69.2104 778.904 69.2087 778.959 69.2117C779.012 69.2146 779.03 69.2219 779.008 69.2158C778.986 69.2096 778.931 69.1922 778.844 69.1513C778.757 69.1106 778.645 69.05 778.508 68.962C778.372 68.8742 778.216 68.7623 778.043 68.6217C777.869 68.4812 777.681 68.3147 777.48 68.1192C777.278 67.9237 777.066 67.7011 776.844 67.4494C776.398 66.9451 775.921 66.3316 775.421 65.598C774.922 64.865 774.406 64.0183 773.882 63.0503C772.833 61.113 771.763 58.7085 770.745 55.7901L765.08 57.7654C767.286 64.0929 769.854 68.598 772.346 71.4207C773.583 72.8211 774.913 73.9354 776.298 74.5844C777.657 75.2211 779.512 75.5861 781.243 74.616C782.974 73.6459 783.632 71.8732 783.798 70.382C783.968 68.8622 783.712 67.1456 783.163 65.3598C782.057 61.7605 779.555 57.2184 775.311 52.0334L770.668 55.8341ZM764.928 56.4799C764.621 59.5553 764.143 62.1434 763.576 64.2724C763.293 65.3361 762.988 66.2802 762.675 67.1096C762.361 67.9397 762.04 68.648 761.725 69.2425C761.568 69.5393 761.413 69.8054 761.263 70.0425C761.113 70.2798 760.969 70.4857 760.833 70.6629C760.697 70.8402 760.572 70.9854 760.46 71.1027C760.348 71.2203 760.253 71.3055 760.178 71.3654C760.103 71.4255 760.054 71.4553 760.034 71.4665C760.013 71.4777 760.029 71.4664 760.08 71.451C760.133 71.4353 760.222 71.4155 760.343 71.4123C760.404 71.4107 760.469 71.4133 760.539 71.4218C760.609 71.4303 760.68 71.4444 760.751 71.4645C760.822 71.4845 760.89 71.5096 760.954 71.5388C761.018 71.568 761.075 71.6 761.126 71.6327C761.228 71.6986 761.294 71.7624 761.33 71.8033C761.366 71.8433 761.374 71.8611 761.362 71.841C761.351 71.821 761.325 71.7702 761.292 71.6797C761.259 71.5896 761.223 71.4674 761.189 71.3086C761.154 71.1501 761.123 70.9609 761.1 70.7387C761.077 70.5168 761.061 70.2661 761.057 69.9854C761.053 69.7049 761.061 69.3973 761.081 69.0621C761.123 68.3907 761.219 67.6192 761.385 66.7473C761.551 65.8761 761.784 64.9122 762.098 63.8571C762.726 61.7454 763.67 59.2887 765.015 56.5056L759.612 53.896C756.697 59.9301 755.327 64.9313 755.093 68.6893C754.977 70.5539 755.13 72.2826 755.65 73.7207C756.16 75.1315 757.214 76.7016 759.124 77.2397C761.035 77.7778 762.753 76.9887 763.925 76.0519C765.119 75.0971 766.152 73.7024 767.027 72.0516C768.79 68.7243 770.233 63.7435 770.898 57.0756L764.928 56.4799ZM760.413 52.8794C758.021 54.8373 755.853 56.3297 753.947 57.4344C752.994 57.9863 752.111 58.4389 751.303 58.8036C750.494 59.1686 749.766 59.4426 749.123 59.6403C748.802 59.7389 748.504 59.8179 748.231 59.8795C747.957 59.9412 747.709 59.985 747.488 60.0143C747.267 60.0436 747.075 60.0578 746.913 60.0615C746.751 60.0653 746.623 60.0584 746.528 60.0478C746.432 60.0371 746.377 60.0235 746.354 60.0172C746.332 60.0108 746.351 60.0138 746.398 60.0393C746.447 60.0653 746.524 60.1147 746.612 60.198C746.656 60.2395 746.7 60.2877 746.744 60.343C746.787 60.3984 746.827 60.4587 746.863 60.5232C746.9 60.5877 746.93 60.6536 746.954 60.7195C746.979 60.7853 746.997 60.8485 747.009 60.9073C747.035 61.0257 747.036 61.1176 747.033 61.1724C747.03 61.2259 747.023 61.2437 747.029 61.2215C747.035 61.1991 747.053 61.1447 747.094 61.0575C747.134 60.9707 747.195 60.8584 747.283 60.7218C747.371 60.5854 747.483 60.4297 747.624 60.2561C747.764 60.0826 747.931 59.8945 748.126 59.6931C748.322 59.4919 748.544 59.2794 748.796 59.0571C749.301 58.6118 749.914 58.134 750.648 57.6346C751.381 57.1355 752.228 56.6189 753.196 56.0947C755.133 55.0455 757.538 53.9755 760.457 52.9578L758.481 47.2923C752.153 49.4989 747.648 52.0669 744.825 54.5592C743.424 55.7958 742.31 57.1263 741.661 58.5109C741.024 59.8694 740.659 61.7245 741.629 63.4562C742.599 65.1878 744.372 65.8447 745.863 66.0109C747.383 66.1802 749.1 65.9244 750.886 65.3754C754.485 64.269 759.028 61.7672 764.213 57.5222L760.413 52.8794ZM759.767 47.1398C756.691 46.8333 754.103 46.3558 751.974 45.7891C750.91 45.506 749.966 45.2019 749.137 44.8883C748.306 44.5744 747.598 44.2536 747.004 43.9387C746.707 43.7815 746.441 43.627 746.204 43.4771C745.967 43.3271 745.761 43.1832 745.584 43.0474C745.406 42.9116 745.261 42.7864 745.144 42.6744C745.026 42.5622 744.941 42.4673 744.881 42.3924C744.821 42.3173 744.791 42.2684 744.78 42.2482C744.769 42.2281 744.78 42.2437 744.796 42.2952C744.812 42.3478 744.831 42.4375 744.835 42.5586C744.836 42.6187 744.834 42.6843 744.825 42.7541C744.816 42.8239 744.802 42.895 744.782 42.9662C744.762 43.0374 744.737 43.1054 744.708 43.1694C744.679 43.2333 744.647 43.2906 744.614 43.3411C744.548 43.4426 744.484 43.5087 744.444 43.5453C744.404 43.581 744.386 43.5884 744.406 43.577C744.426 43.5656 744.477 43.5394 744.568 43.5067C744.658 43.474 744.78 43.4375 744.939 43.4032C745.097 43.3688 745.287 43.3379 745.509 43.3146C745.731 43.2912 745.982 43.276 746.262 43.2719C746.543 43.2678 746.851 43.2749 747.186 43.2958C747.857 43.3375 748.629 43.4335 749.501 43.5991C750.372 43.7646 751.336 43.9981 752.391 44.3118C754.503 44.9398 756.96 45.8835 759.743 47.2274L762.352 41.8244C756.318 38.9105 751.316 37.5409 747.558 37.3073C745.693 37.1914 743.965 37.3443 742.527 37.8645C741.116 38.3748 739.546 39.4281 739.007 41.3385C738.469 43.249 739.258 44.9672 740.195 46.139C741.15 47.3335 742.544 48.3663 744.195 49.2408C747.523 51.0033 752.503 52.4457 759.172 53.1103L759.767 47.1398ZM763.369 42.6255C761.411 40.2341 759.919 38.0663 758.814 36.1601C758.262 35.2077 757.81 34.3252 757.445 33.5169C757.08 32.7079 756.806 31.9802 756.609 31.3372C756.51 31.0162 756.431 30.7188 756.369 30.4451C756.308 30.1712 756.264 29.9238 756.235 29.7026C756.205 29.4811 756.191 29.2899 756.188 29.1278C756.184 28.9653 756.191 28.838 756.201 28.7427C756.212 28.647 756.226 28.5914 756.232 28.5692C756.238 28.547 756.235 28.5659 756.21 28.6131C756.184 28.6614 756.134 28.7388 756.051 28.8265C756.01 28.8702 755.962 28.9147 755.906 28.9579C755.851 29.0012 755.791 29.0416 755.726 29.0777C755.662 29.1138 755.596 29.1441 755.53 29.1687C755.464 29.1933 755.401 29.2112 755.342 29.2237C755.224 29.2489 755.132 29.2506 755.078 29.2476C755.024 29.2447 755.006 29.2374 755.028 29.2435C755.051 29.2497 755.105 29.2671 755.192 29.308C755.279 29.3487 755.391 29.4093 755.528 29.4973C755.664 29.5851 755.82 29.697 755.994 29.8376C756.167 29.978 756.355 30.1445 756.557 30.3401C756.758 30.5355 756.97 30.7581 757.192 31.0098C757.638 31.514 758.115 32.1275 758.615 32.8611C759.114 33.5941 759.63 34.4408 760.154 35.4087C761.203 37.346 762.273 39.7505 763.291 42.6687L768.956 40.6934C766.75 34.366 764.182 29.861 761.69 27.0385C760.454 25.638 759.123 24.5237 757.738 23.8749C756.38 23.2382 754.525 22.8733 752.793 23.8435C751.062 24.8137 750.405 26.5864 750.238 28.0775C750.069 29.5974 750.325 31.314 750.873 33.0998C751.98 36.6991 754.481 41.2412 758.726 46.4263L763.369 42.6255ZM769.109 41.9789C769.416 38.9036 769.893 36.3156 770.46 34.1867C770.744 33.123 771.048 32.179 771.362 31.3495C771.676 30.5194 771.996 29.8112 772.311 29.2167C772.469 28.92 772.623 28.6539 772.773 28.4168C772.923 28.1795 773.067 27.9736 773.203 27.7965C773.339 27.6191 773.464 27.4739 773.576 27.3566C773.688 27.2391 773.783 27.1539 773.858 27.094C773.933 27.0339 773.982 27.0042 774.003 26.9929C774.023 26.9818 774.007 26.993 773.956 27.0084C773.903 27.0241 773.814 27.044 773.693 27.0472C773.632 27.0487 773.567 27.0461 773.497 27.0376C773.427 27.0291 773.356 27.015 773.285 26.9949C773.214 26.9749 773.146 26.9498 773.082 26.9206C773.018 26.8914 772.961 26.8594 772.91 26.8267C772.809 26.7608 772.742 26.697 772.706 26.6561C772.67 26.6161 772.662 26.5983 772.674 26.6184C772.685 26.6385 772.711 26.6893 772.744 26.7798C772.777 26.8699 772.813 26.9921 772.848 27.1509C772.882 27.3094 772.913 27.4986 772.936 27.7208C772.959 27.9427 772.975 28.1935 772.979 28.4741C772.983 28.7546 772.976 29.0622 772.955 29.3974C772.913 30.0688 772.817 30.8404 772.651 31.7123C772.486 32.5835 772.252 33.5474 771.938 34.6025C771.31 36.7142 770.366 39.1709 769.022 41.954L774.424 44.5637C777.339 38.5295 778.709 33.5283 778.943 29.7703C779.059 27.9057 778.907 26.177 778.386 24.7389C777.876 23.3281 776.823 21.758 774.912 21.2198C773.002 20.6815 771.284 21.4706 770.112 22.4074C768.917 23.3622 767.884 24.7568 767.01 26.4076C765.247 29.7348 763.804 34.7154 763.138 41.3832L769.109 41.9789ZM773.623 45.5802C776.015 43.6223 778.183 42.1298 780.09 41.0251C781.042 40.4731 781.925 40.0205 782.733 39.6558C783.542 39.2907 784.27 39.0168 784.913 38.8191C785.234 38.7204 785.532 38.6415 785.806 38.5798C786.08 38.5181 786.327 38.4743 786.548 38.445C786.77 38.4157 786.961 38.4015 787.123 38.3978C787.286 38.3941 787.413 38.401 787.508 38.4116C787.604 38.4222 787.66 38.4358 787.682 38.4422C787.704 38.4486 787.685 38.4455 787.638 38.42C787.59 38.394 787.512 38.3446 787.424 38.2613C787.381 38.2199 787.336 38.1717 787.293 38.1163C787.25 38.0609 787.209 38.0006 787.173 37.9361C787.137 37.8716 787.107 37.8058 787.082 37.7399C787.057 37.674 787.039 37.6109 787.027 37.552C787.002 37.4336 787 37.3418 787.003 37.287C787.006 37.2334 787.013 37.2156 787.007 37.2379C787.001 37.2602 786.983 37.3147 786.943 37.4018C786.902 37.4887 786.841 37.6009 786.753 37.7376C786.665 37.8739 786.553 38.0296 786.413 38.2033C786.272 38.3767 786.106 38.5649 785.91 38.7662C785.715 38.9675 785.492 39.18 785.24 39.4023C784.736 39.8476 784.122 40.3253 783.388 40.8248C782.655 41.3239 781.808 41.8404 780.84 42.3647C778.903 43.4139 776.498 44.4839 773.579 45.5017L775.555 51.1671C781.883 48.9605 786.388 46.3925 789.211 43.9002C790.612 42.6636 791.726 41.3331 792.375 39.9484C793.012 38.5899 793.378 36.7348 792.407 35.0031C791.437 33.2715 789.664 32.6146 788.173 32.4485C786.653 32.2791 784.936 32.535 783.15 33.084C779.551 34.1904 775.008 36.6924 769.823 40.9374L773.623 45.5802Z" fill="#A0AFC5" mask="url(#path-2-outside-1_331_7)"/>
</svg>
