<svg width="72" height="72" viewBox="0 0 72 72" fill="none" xmlns="http://www.w3.org/2000/svg">
<mask id="path-1-outside-1_43_805" maskUnits="userSpaceOnUse" x="0.587891" y="0.108643" width="72" height="72" fill="black">
<rect fill="white" x="0.587891" y="0.108643" width="72" height="72"/>
<path fill-rule="evenodd" clip-rule="evenodd" d="M44.1496 39.0058C68.1579 55.7906 56.2698 67.6786 39.485 43.6702C44.5928 72.5164 27.7794 72.5165 32.887 43.6705C16.1023 67.6786 4.21438 55.7905 28.2226 39.0058C-0.623678 44.1136 -0.623694 27.3001 28.2226 32.4078C4.2144 15.6231 16.1024 3.73508 32.887 27.7431C27.7794 -1.10295 44.5928 -1.10286 39.485 27.7434C56.2698 3.73501 68.1579 15.623 44.1497 32.4078C72.9957 27.3001 72.9957 44.1135 44.1496 39.0058Z"/>
</mask>
<path fill-rule="evenodd" clip-rule="evenodd" d="M44.1496 39.0058C68.1579 55.7906 56.2698 67.6786 39.485 43.6702C44.5928 72.5164 27.7794 72.5165 32.887 43.6705C16.1023 67.6786 4.21438 55.7905 28.2226 39.0058C-0.623678 44.1136 -0.623694 27.3001 28.2226 32.4078C4.2144 15.6231 16.1024 3.73508 32.887 27.7431C27.7794 -1.10295 44.5928 -1.10286 39.485 27.7434C56.2698 3.73501 68.1579 15.623 44.1497 32.4078C72.9957 27.3001 72.9957 44.1135 44.1496 39.0058Z" fill="#D3F2D1"/>
<path d="M44.1496 39.0058L45.1958 33.0977L40.7118 43.9232L44.1496 39.0058ZM39.485 43.6702L44.4024 40.2323L33.5769 44.7163L39.485 43.6702ZM32.887 43.6705L38.7951 44.7166L27.9696 40.2326L32.887 43.6705ZM28.2226 39.0058L31.6605 43.9232L27.1765 33.0977L28.2226 39.0058ZM28.2226 32.4078L27.1765 38.3159L31.6605 27.4904L28.2226 32.4078ZM32.887 27.7431L27.9696 31.181L38.7951 26.697L32.887 27.7431ZM39.485 27.7434L33.5769 26.6973L44.4024 31.1813L39.485 27.7434ZM44.1497 32.4078L40.7118 27.4904L45.1958 38.3159L44.1497 32.4078ZM40.7118 43.9232C46.3159 47.8412 49.4238 51.2058 50.8675 53.4441C51.217 53.9859 51.4398 54.4169 51.575 54.7313C51.7134 55.0532 51.7347 55.1938 51.7301 55.1656C51.727 55.147 51.6744 54.8301 51.7885 54.3195C51.9111 53.7707 52.2221 53.0428 52.8721 52.3928C53.5222 51.7427 54.25 51.4318 54.7988 51.3092C55.3095 51.1951 55.6263 51.2477 55.6449 51.2508C55.6731 51.2554 55.5325 51.2341 55.2106 51.0957C54.8961 50.9605 54.4651 50.7377 53.9234 50.3882C51.685 48.9444 48.3204 45.8365 44.4024 40.2323L34.5676 47.1081C39.042 53.5081 43.4577 57.9174 47.4188 60.4724C49.375 61.7342 51.5079 62.7301 53.6898 63.0904C55.8147 63.4413 58.9454 63.29 61.3573 60.8781C63.7693 58.4662 63.9206 55.3355 63.5698 53.2106C63.2095 51.0287 62.2135 48.8958 60.9518 46.9396C58.3967 42.9785 53.9875 38.5628 47.5875 34.0884L40.7118 43.9232ZM33.5769 44.7163C34.7692 51.4498 34.5876 56.0267 34.0257 58.6305C33.8897 59.2607 33.7424 59.723 33.6157 60.0411C33.486 60.3665 33.4016 60.481 33.4182 60.4579C33.4291 60.4426 33.616 60.1814 34.0577 59.901C34.5324 59.5997 35.2668 59.305 36.186 59.305C37.1051 59.3049 37.8396 59.5997 38.3144 59.901C38.7561 60.1813 38.9429 60.4426 38.9539 60.4579C38.9705 60.4811 38.8861 60.3666 38.7564 60.0411C38.6297 59.7231 38.4824 59.2608 38.3464 58.6306C37.7845 56.0269 37.6029 51.45 38.7951 44.7166L26.9789 42.6244C25.6174 50.314 25.6221 56.5544 26.6165 61.1621C27.1076 63.4377 27.9116 65.6501 29.1999 67.4478C30.4544 69.1985 32.7753 71.305 36.1862 71.305C39.597 71.3049 41.9178 69.1983 43.1723 67.4476C44.4605 65.65 45.2645 63.4375 45.7556 61.1619C46.75 56.5542 46.7547 50.3137 45.3931 42.6241L33.5769 44.7163ZM27.9696 40.2326C24.0517 45.8367 20.6871 48.9445 18.4488 50.3883C17.907 50.7377 17.4761 50.9605 17.1616 51.0957C16.8398 51.2341 16.6992 51.2554 16.7273 51.2508C16.7459 51.2477 17.0628 51.1951 17.5735 51.3092C18.1223 51.4318 18.8502 51.7428 19.5002 52.3928C20.1502 53.0429 20.4611 53.7707 20.5838 54.3195C20.6979 54.8301 20.6452 55.147 20.6422 55.1656C20.6375 55.1938 20.6588 55.0531 20.7972 54.7313C20.9325 54.4168 21.1553 53.9858 21.5047 53.4441C22.9485 51.2057 26.0564 47.8411 31.6605 43.9232L24.7848 34.0883C18.3848 38.5627 13.9755 42.9784 11.4205 46.9395C10.1587 48.8957 9.16281 51.0286 8.8025 53.2105C8.45162 55.3353 8.6029 58.4661 11.0148 60.878C13.4267 63.29 16.5574 63.4413 18.6823 63.0905C20.8642 62.7302 22.9971 61.7343 24.9533 60.4725C28.9144 57.9175 33.3301 53.5083 37.8044 47.1084L27.9696 40.2326ZM27.1765 33.0977C20.443 34.2899 15.8661 34.1084 13.2623 33.5464C12.6321 33.4104 12.1698 33.2632 11.8518 33.1364C11.5263 33.0067 11.4118 32.9223 11.435 32.9389C11.4503 32.9499 11.7115 33.1367 11.9918 33.5784C12.2931 34.0532 12.5879 34.7876 12.5879 35.7068C12.5879 36.6259 12.2931 37.3604 11.9918 37.8351C11.7115 38.2769 11.4503 38.4637 11.435 38.4747C11.4118 38.4913 11.5263 38.4069 11.8518 38.2772C12.1698 38.1504 12.6321 38.0032 13.2623 37.8672C15.8661 37.3052 20.443 37.1236 27.1765 38.3159L29.2687 26.4997C21.579 25.1381 15.3386 25.1428 10.7308 26.1372C8.45526 26.6283 6.24281 27.4324 4.44515 28.7206C2.69447 29.9751 0.587881 32.2959 0.587891 35.7068C0.5879 39.1177 2.6945 41.4385 4.44518 42.6931C6.24284 43.9813 8.45529 44.7853 10.7309 45.2764C15.3387 46.2708 21.5791 46.2755 29.2688 44.9138L27.1765 33.0977ZM31.6605 27.4904C26.0564 23.5725 22.9485 20.2079 21.5047 17.9695C21.1553 17.4278 20.9325 16.9968 20.7972 16.6823C20.6588 16.3605 20.6375 16.2199 20.6422 16.248C20.6452 16.2666 20.6979 16.5835 20.5838 17.0941C20.4611 17.6429 20.1502 18.3708 19.5002 19.0208C18.8502 19.6708 18.1223 19.9818 17.5735 20.1044C17.0628 20.2186 16.7459 20.1659 16.7273 20.1628C16.6992 20.1582 16.8398 20.1795 17.1616 20.3179C17.4761 20.4531 17.907 20.6759 18.4488 21.0254C20.6871 22.4691 24.0517 25.577 27.9696 31.181L37.8045 24.3053C33.3301 17.9053 28.9144 13.4961 24.9533 10.9411C22.9971 9.67936 20.8642 8.68345 18.6823 8.32317C16.5574 7.97231 13.4267 8.12365 11.0148 10.5356C8.60291 12.9475 8.45162 16.0783 8.8025 18.2031C9.1628 20.385 10.1587 22.5179 11.4205 24.4741C13.9755 28.4352 18.3847 32.8509 24.7847 37.3253L31.6605 27.4904ZM38.7951 26.697C37.6029 19.9636 37.7845 15.3867 38.3464 12.783C38.4824 12.1528 38.6297 11.6905 38.7564 11.3725C38.8861 11.047 38.9705 10.9325 38.9539 10.9557C38.9429 10.971 38.7561 11.2323 38.3144 11.5126C37.8396 11.8139 37.1051 12.1087 36.186 12.1086C35.2668 12.1086 34.5324 11.8139 34.0577 11.5126C33.616 11.2322 33.4291 10.971 33.4182 10.9557C33.4016 10.9326 33.486 11.0471 33.6157 11.3725C33.7424 11.6906 33.8897 12.1529 34.0257 12.7831C34.5876 15.3869 34.7692 19.9638 33.5769 26.6973L45.3931 28.7896C46.7547 21.0999 46.75 14.8595 45.7556 10.2517C45.2645 7.97609 44.4605 5.76365 43.1723 3.96598C41.9178 2.2153 39.597 0.108698 36.1862 0.108643C32.7753 0.108587 30.4544 2.21515 29.1999 3.96583C27.9116 5.76348 27.1076 7.97592 26.6165 10.2515C25.6221 14.8592 25.6174 21.0996 26.979 28.7893L38.7951 26.697ZM44.4024 31.1813C48.3204 25.5771 51.685 22.4692 53.9234 21.0254C54.4651 20.676 54.8961 20.4532 55.2106 20.3179C55.5324 20.1795 55.6731 20.1582 55.6449 20.1628C55.6263 20.1659 55.3095 20.2186 54.7988 20.1044C54.2501 19.9818 53.5222 19.6709 52.8721 19.0209C52.2221 18.3709 51.9111 17.643 51.7885 17.0942C51.6744 16.5835 51.727 16.2666 51.7301 16.248C51.7347 16.2199 51.7134 16.3605 51.575 16.6823C51.4398 16.9968 51.217 17.4277 50.8676 17.9695C49.4238 20.2078 46.3159 23.5724 40.7118 27.4904L47.5876 37.3252C53.9876 32.8508 58.3968 28.4351 60.9518 24.474C62.2136 22.5178 63.2095 20.3849 63.5698 18.203C63.9206 16.0781 63.7693 12.9474 61.3573 10.5355C58.9454 8.12359 55.8146 7.97231 53.6898 8.32319C51.5079 8.68351 49.375 9.67944 47.4188 10.9412C43.4577 13.4963 39.042 17.9055 34.5676 24.3056L44.4024 31.1813ZM45.1958 38.3159C51.9292 37.1236 56.5061 37.3053 59.1098 37.8672C59.74 38.0032 60.2023 38.1504 60.5203 38.2772C60.8458 38.4069 60.9603 38.4913 60.9371 38.4747C60.9218 38.4637 60.6606 38.2769 60.3802 37.8351C60.079 37.3604 59.7842 36.6259 59.7842 35.7068C59.7842 34.7876 60.079 34.0532 60.3802 33.5785C60.6606 33.1367 60.9218 32.9499 60.9371 32.9389C60.9603 32.9223 60.8458 33.0067 60.5203 33.1364C60.2023 33.2632 59.74 33.4104 59.1098 33.5464C56.5061 34.1083 51.9292 34.2899 45.1958 33.0977L43.1035 44.9139C50.7931 46.2755 57.0335 46.2708 61.6413 45.2764C63.9169 44.7853 66.1293 43.9812 67.9269 42.693C69.6776 41.4385 71.7842 39.1177 71.7842 35.7068C71.7842 32.2959 69.6776 29.9751 67.927 28.7206C66.1293 27.4324 63.9169 26.6283 61.6413 26.1372C57.0336 25.1428 50.7932 25.1381 43.1036 26.4997L45.1958 38.3159Z" fill="#A0AFC5" mask="url(#path-1-outside-1_43_805)"/>
</svg>
