<svg width="577" height="647" viewBox="0 0 577 647" fill="none" xmlns="http://www.w3.org/2000/svg">
<path d="M458.86 188.172C457.076 190.955 456.984 190.97 457.322 192.385C465.149 224.894 464.226 257.896 462.612 290.866C461.243 319.023 469.992 343.197 489.658 363.266C503.619 377.506 517.904 391.438 533.849 403.51C533.295 404.033 532.757 404.556 532.203 405.094C531.373 405.494 528.375 403.802 530.466 407.001C534.387 412.967 538.569 418.796 542.029 425.008C556.82 451.597 562.386 480.016 556.743 510.034C552.607 531.993 542.213 551.093 526.929 567.655C536.908 562.38 544.812 554.676 552.669 546.879C553.161 547.356 553.668 547.833 554.16 548.325C541.706 565.625 523.408 574.667 504.819 583.279C504.265 581.326 503.543 579.404 503.158 577.42C497.7 548.848 492.118 520.337 481.816 492.979C475.251 475.541 464.841 461.516 447.589 453.581C433.72 447.214 419.574 441.417 404.736 437.557C383.887 429.714 364.159 420.057 347.076 405.279C341.802 400.727 339.004 396.267 338.251 389.347C336.713 375.091 336.144 360.79 335.452 346.488C335.206 341.46 333.93 340.245 329.133 343.121C316.693 350.579 303.609 350.948 290.201 345.596C279.868 341.475 270.704 335.539 262.401 328.265C257.173 323.683 252.237 318.746 246.425 313.272C247.04 339.491 246.148 364.496 243.458 389.424C242.796 395.513 240.582 399.958 235.662 404.294C218.056 419.826 197.36 429.376 175.742 437.449C162.334 441.463 149.48 446.861 136.579 452.258C121.142 458.717 110.086 469.574 103.659 484.752C90.6818 515.401 83.1475 547.617 77.5199 580.311C76.5205 583.91 74.9983 586.047 70.6007 584.233C65.3114 582.064 59.776 580.48 54.3483 578.65C53.9639 577.205 57.8694 577.958 55.8705 575.682C55.3785 573.191 53.1336 572.099 51.6268 570.438C12.049 527.242 9.78868 465.391 46.1068 420.533C56.8853 407.216 71.0928 397.912 84.6083 387.901C115.053 365.357 126.785 334.986 122.71 298.048C119.22 266.446 116.79 234.875 121.818 203.211C123.264 194.138 124.986 185.127 126.508 176.069C126.769 174.516 127.969 171.333 124.278 174.147C123.633 173.486 122.987 172.824 122.326 172.163C127.922 166.242 130.705 159.046 133.043 151.295C143.79 115.572 157.629 81.3558 183.291 53.2448C197.391 37.8052 213.674 25.9642 234.555 21.4584C240.382 20.1974 246.21 20.0436 252.084 20.8433C256.512 21.443 260.648 21.3661 264.061 17.7215C279.053 1.7284 298.519 -0.716702 318.539 1.54387C359.254 6.12652 387.469 30.4392 409.872 62.6561C433.044 95.9649 444.96 133.949 453.724 173.024C454.908 178.283 457.015 182.512 460.213 186.511C459.767 187.064 459.306 187.633 458.86 188.187V188.172ZM423.51 314.01C423.003 313.502 422.496 312.98 421.973 312.472C410.441 299.678 401 285.499 393.866 269.783C398.786 287.36 407.55 302.523 421.481 314.471V314.533C422.465 316.624 424.202 317.931 426.155 319.008C431.199 323.437 436.488 327.343 443.776 327.035C438.441 323.836 433.121 320.638 427.785 317.439C426.355 316.301 424.94 315.148 423.51 314.01ZM401.615 148.02C405.367 147.789 409.134 147.62 413.9 144.99C408.119 143.498 404.183 145.421 400.154 145.636C397.171 145.451 394.188 145.205 391.206 145.082C386.962 144.898 382.687 141.53 378.459 145.144C376.445 147.404 375.199 144.898 374.23 144.083C364.39 135.886 353.596 140.269 343.063 140.976C353.15 144.79 363.175 148.25 373.954 149.004C377.598 149.265 378.259 147.912 378.413 145.082C385.932 147.697 393.573 149.404 401.615 148.004V148.02ZM211.798 358.991C211.845 358.422 211.906 357.853 211.952 357.284C213.966 342.736 212.552 328.527 209 314.533C208.293 314.594 207.601 314.671 206.894 314.733C207.939 323.314 208.985 331.895 210.03 340.475C210.061 340.983 210.076 341.49 210.107 341.983C210.107 344.043 210.122 346.104 210.138 348.164C210.092 348.672 210.061 349.164 210.015 349.672C210.122 352.255 207.954 355.3 211.491 357.222C211.645 357.822 211.814 358.422 211.968 359.006C210.061 360.206 208.062 361.113 207.985 364.004C207.785 371.831 203.588 378.905 203.157 386.733C209.2 378.382 210.722 368.756 211.783 358.975L211.798 358.991ZM214.151 152.91C215.166 153.417 216.196 153.909 217.211 154.417C214.551 156.831 211.491 158.307 207.939 159.169C194.454 162.398 194.47 162.475 194.147 176.008C193.885 178.453 193.609 180.898 195.054 183.112C195.192 183.789 195.315 184.465 195.454 185.142C194.562 185.142 193.67 185.173 192.778 185.188C191.594 180.037 193.117 173.378 185.506 171.779C178.325 170.272 172.359 172.409 168.1 178.407C166.362 180.852 164.779 183.604 163.902 186.465C157.875 205.795 175.711 231.614 195.884 232.952C198.329 233.122 201.22 233.952 201.712 230.077C201.358 229.169 200.989 228.262 200.635 227.355C200.559 226.632 200.482 225.909 200.405 225.171C201.343 225.171 202.281 225.202 203.203 225.217C208.446 245.409 215.289 264.923 230.004 280.409C247.594 298.909 267.583 313.364 294.798 311.165C319.446 309.181 338.174 295.787 353.765 277.502C367.788 261.063 374.169 241.226 378.689 220.588C379.627 220.604 380.565 220.619 381.503 220.635C381.257 222.126 381.057 223.649 380.75 225.125C378.966 233.491 379.627 234.383 387.854 232.414C400.923 229.308 409.811 220.881 415.069 208.84C420.42 196.583 418.36 183.312 410.718 176.054C402.307 168.057 392.297 169.995 387.623 180.529C386.839 179.514 386.07 178.514 385.286 177.499C385.378 176.454 385.486 175.408 385.578 174.362C386.808 172.932 386.562 171.302 386.178 169.656C385.947 166.873 385.332 164.059 385.578 161.322C386.178 154.309 383.287 151.664 376.275 152.187C366.419 152.91 356.979 150.295 348.137 146.313C338.82 142.114 329.702 141.761 320.076 144.59C317.662 145.298 314.126 147.343 312.527 144.052C310.743 140.392 313.095 137.193 316.125 134.917C317.739 133.703 319.646 132.872 321.306 131.719C324.489 129.489 320.66 129.412 320.184 128.29C320.799 127.721 321.414 127.152 322.044 126.583C327.288 127.844 332.515 129.535 338.589 126.721C305.192 112.542 284.896 86.3383 271.749 53.4447C271.196 53.9214 270.658 54.3981 270.104 54.8749C270.965 59.7804 271.826 64.6707 272.703 69.5762C272.165 70.6988 271.626 71.8214 271.073 72.944C270.15 70.7142 269.228 68.469 268.336 66.3161C266.537 66.6852 266.737 67.8847 266.583 68.8227C263.308 88.2144 260.402 107.745 249.055 124.568C247.009 127.598 248.055 128.136 251.007 128.935C254.667 129.935 258.295 131.381 261.632 133.195C265.584 135.348 269.597 139.131 268.075 143.422C266.491 147.881 261.463 144.79 257.957 144.452C255.697 144.237 253.514 143.268 251.253 142.914C244.472 141.884 237.676 140.93 231.065 143.791C228.512 140.023 220.501 138.547 216.473 141.791C210.83 146.328 205.679 151.464 199.621 156.985C205.786 157.477 209.538 153.771 214.105 152.894L214.151 152.91ZM209.6 53.1371C188.043 66.0239 176.034 85.677 169.576 109.282C178.417 87.1995 191.056 68.0077 211.337 54.6596C221.854 49.3234 233.002 45.971 244.749 44.4639C231.741 42.3418 220.286 46.2478 209.6 53.1525V53.1371ZM521.994 537.268C521.625 539.759 519.795 542.281 522.578 546.141C523.378 542.881 523.87 540.805 524.377 538.729C528.99 512.509 525.761 487.443 513.598 463.638C522.824 487.459 525.761 511.971 521.994 537.268ZM144.744 252.759C143.867 252.867 143.006 252.975 142.13 253.082C141.223 264.585 144.544 275.626 147.619 286.514C151.678 300.877 160.643 312.441 171.037 322.883C183.814 335.739 199.698 346.196 203.711 365.926C204.772 357.238 200.82 350.425 196.161 343.982C189.965 335.401 181.554 328.942 174.081 321.591C158.244 306.013 147.142 288.052 145.543 265.277C145.251 261.11 145.005 256.942 144.744 252.775V252.759ZM85.823 454.396C90.3896 423.44 108.303 401.911 133.981 385.795C111.286 389.885 83.2244 429.56 85.823 454.396ZM232.233 127.828C239.767 129.797 244.857 127.782 247.763 121.323C251.576 112.819 257.25 104.915 256.496 94.7193C249.193 106.222 241.213 117.094 232.233 127.844V127.828Z" fill="#2D2C2C"/>
<path d="M437.104 584.986C437.104 584.002 437.088 583.033 437.073 582.049C436.289 547.525 434.49 513.002 437.319 478.478C438.595 484.798 438.533 491.134 438.61 497.47C438.718 506.666 438.011 515.893 439.994 524.996C440.332 526.534 440.471 528.457 442.27 528.503C444.1 528.549 444.453 526.657 444.576 525.104C444.868 521.444 444.776 517.661 447.913 514.755C448.389 515.385 448.682 515.585 448.682 515.785C448.682 516.769 448.682 517.784 448.513 518.738C444.961 538.068 436.75 556.598 442.101 577.343C443.715 583.571 445.391 584.878 450.419 584.909C463.735 584.955 477.066 584.663 490.366 585.032C497.793 585.232 499.438 581.188 498.423 575.344C493.149 545.08 487.86 514.893 473.852 486.92C468.701 476.633 461.582 469.036 452.987 461.977C440.855 452.028 425.141 450.059 411.841 442.709C406.997 440.033 401.231 442.309 399.555 447.23C397.464 453.396 392.882 457.395 389.33 462.131C384.856 468.098 381.073 475.341 372.924 477.632C372.201 473.48 375.907 472.065 377.906 469.62C381.565 465.099 387.716 462.331 389.238 456.457C391.544 447.522 395.681 440.679 404.737 437.572C419.575 441.432 433.705 447.23 447.59 453.596C464.842 461.516 475.251 475.541 481.817 492.995C492.119 520.352 497.7 548.879 503.159 577.435C503.543 579.419 504.25 581.342 504.819 583.295C502.006 588.646 497.639 590.045 491.704 589.661C483.093 589.107 474.406 589.277 465.764 589.584C455.878 589.922 446.16 589.692 437.119 585.001L437.104 584.986Z" fill="#F0D9E2"/>
<path d="M55.8711 575.682C57.87 577.958 53.9491 577.205 54.3489 578.65C24.5349 569.347 3.43899 542.666 1.20947 508.68C-0.282 486.09 3.13147 463.73 11.9573 442.601C21.0291 420.887 35.8362 404.217 56.4708 392.592C69.6173 385.179 82.4562 377.152 92.4199 365.465C112.301 342.136 116.898 314.979 111.901 285.622C106.704 255.174 103.506 224.802 112.547 194.477C114.884 186.634 117.636 178.96 122.372 172.178C123.018 172.84 123.664 173.501 124.325 174.162C118.513 185.05 114.961 196.599 112.639 208.778C107.75 234.459 111.548 259.695 115.146 285.038C119.651 316.793 115.361 346.242 92.1431 370.617C81.9488 381.32 69.4635 388.809 56.8552 396.098C33.2992 409.723 18.5075 430.16 10.5735 455.795C5.2226 473.08 4.20779 490.919 4.99196 508.911C6.32968 539.898 26.0878 565.887 55.9019 575.698L55.8711 575.682Z" fill="#393636"/>
<path d="M458.86 188.172C459.306 187.618 459.767 187.049 460.213 186.495C472.637 202.319 476.419 220.958 476.604 240.319C476.758 255.374 475.497 270.459 474.636 285.53C474.052 295.802 474.251 305.952 476.773 315.994C482.693 339.522 491.995 348.134 515.844 351.517C510.631 355.223 505.588 353.947 500.714 352.24C482.416 345.812 476.158 330.357 472.391 313.395C469.716 301.308 470.592 289.021 471.499 276.734C472.914 257.619 474.251 238.489 470.899 219.389C468.916 208.148 464.518 197.937 458.845 188.172H458.86Z" fill="#393636"/>
<path d="M532.203 405.094C532.757 404.571 533.295 404.048 533.848 403.51C584.143 440.525 588.956 506.62 555.529 546.741C555.052 546.157 554.56 545.557 554.083 544.973C576.348 512.602 579.807 478.57 562.801 442.893C555.652 427.884 544.427 416.043 532.203 405.079V405.094Z" fill="#393636"/>
<path d="M554.083 544.988C554.56 545.572 555.052 546.172 555.529 546.756C555.067 547.279 554.606 547.802 554.145 548.325C553.653 547.848 553.145 547.372 552.653 546.879C553.13 546.249 553.607 545.618 554.083 544.988Z" fill="#080808"/>
<path d="M320.214 128.29C320.676 129.412 324.504 129.474 321.337 131.719C319.676 132.888 317.77 133.703 316.155 134.918C313.111 137.209 310.774 140.392 312.557 144.052C314.156 147.343 317.708 145.298 320.107 144.59C329.732 141.761 338.85 142.114 348.168 146.313C357.009 150.296 366.45 152.894 376.306 152.187C383.302 151.68 386.208 154.325 385.609 161.322C385.378 164.059 385.993 166.873 386.208 169.656C385.132 171.117 384.947 172.686 385.609 174.362C385.516 175.408 385.409 176.454 385.316 177.499C383.118 191.862 380.919 206.21 378.72 220.573C374.2 241.21 367.819 261.048 353.796 277.487C338.204 295.772 319.492 309.151 294.829 311.15C267.598 313.349 247.624 298.893 230.034 280.394C215.319 264.923 208.477 245.393 203.234 225.202C200.651 211.838 198.068 198.49 195.484 185.127C195.346 184.45 195.223 183.774 195.069 183.097C195.346 180.652 195.792 178.191 194.162 175.992C194.485 162.46 194.454 162.383 207.954 159.153C211.491 158.308 214.551 156.831 217.226 154.401C222.157 151.849 225.257 149.322 226.529 146.82H226.498C229.389 147.789 230.588 146.205 231.172 143.714L231.111 143.791C237.722 140.93 244.518 141.884 251.299 142.914C253.56 143.252 255.743 144.221 258.003 144.452C261.509 144.79 266.522 147.881 268.121 143.422C269.658 139.116 265.63 135.348 261.678 133.195C258.341 131.381 254.713 129.92 251.053 128.935C248.101 128.136 247.056 127.598 249.101 124.568C260.448 107.745 263.354 88.2145 266.629 68.8228C266.783 67.8847 266.598 66.6852 268.382 66.3162C269.274 68.4845 270.196 70.7143 271.119 72.9441C279.191 98.7638 294.075 118.525 320.23 128.29H320.214ZM267.721 174.239C265.86 165.043 259.725 159.738 251.192 157.677C235.647 153.909 222.838 160.276 210.384 169.426C218.349 174.424 223.915 168.134 230.28 166.535C229.542 178.53 233.494 185.035 241.689 185.711C245.149 186.003 248.224 184.973 250.961 182.897C256.281 178.868 255.574 172.84 255.512 166.935C260.694 168.257 263.646 171.902 267.705 174.239H267.721ZM325.043 166.704C324.904 168.826 324.674 170.81 324.689 172.778C324.781 180.79 329.64 186.372 336.344 186.265C344.232 186.142 351.428 179.606 350.105 172.04C348.722 164.09 352.381 167.288 355.518 168.718C363.19 172.209 363.16 172.271 368.818 168.519C341.864 151.111 315.34 153.771 312.849 174.347C317.355 172.594 319.323 166.95 325.043 166.719V166.704ZM303.193 219.404C292.03 222.926 292.092 217.59 292.43 210.67C293.03 198.198 292.953 185.68 292.784 173.178C292.738 169.918 294.952 166.473 292.276 162.352C285.865 181.067 279.806 198.952 273.564 216.79C272.641 219.435 273.702 220.635 275.686 221.619C278.868 223.203 281.99 225.048 285.357 226.14C291.754 228.201 297.796 228.093 303.209 219.404H303.193ZM292.599 256.189C302.194 256.635 312.834 253.067 322.213 245.732C323.336 244.855 324.92 243.84 323.628 242.072C322.275 240.226 320.968 241.595 319.769 242.425C300.195 255.943 280.514 255.943 260.74 242.871C259.464 242.025 257.926 240.657 256.789 242.256C255.236 244.409 257.757 245.332 258.972 246.254C268.228 253.205 278.576 256.85 292.615 256.189H292.599Z" fill="#F2E8E9"/>
<path d="M404.736 437.557C395.665 440.648 391.544 447.507 389.237 456.441C387.715 462.316 381.58 465.084 377.905 469.605C375.922 472.065 372.201 473.48 372.923 477.617L372.647 477.601C365.189 478.586 357.071 486.398 355.502 494.102L355.472 494.148C351.966 494.594 347.753 492.795 345.047 495.286C334.053 505.374 318.692 505.19 306.453 512.263C304.5 513.386 301.963 512.663 299.78 511.71C291.338 508.065 283.451 510.341 275.701 514.001C274.179 513.909 272.657 513.817 271.134 513.74C270.381 510.357 268.151 508.296 264.876 507.881C253.836 506.497 244.196 501.099 233.955 497.393C233.033 497.239 232.11 497.085 231.188 496.916C227.866 490.565 225.329 483.214 215.75 484.921C214.458 477.663 210.322 472.327 204.203 468.636C200.928 466.668 198.852 464.007 197.376 460.686C196.007 457.61 194.5 454.75 191.072 453.366C189.995 452.935 188.35 451.613 188.442 450.905C189.826 441.017 181.262 440.694 175.772 437.449C197.376 429.376 218.072 419.842 235.693 404.294C240.613 399.958 242.827 395.514 243.488 389.424C246.164 364.496 247.071 339.491 246.456 313.272C252.268 318.746 257.204 323.683 262.432 328.265C270.735 335.555 279.899 341.491 290.231 345.596C303.655 350.948 316.724 350.579 329.163 343.121C333.961 340.245 335.237 341.46 335.483 346.488C336.175 360.79 336.728 375.076 338.281 389.347C339.035 396.252 341.833 400.711 347.107 405.279C364.19 420.057 383.917 429.714 404.767 437.557H404.736ZM342.694 453.75C331.9 449.598 314.618 452.028 307.268 458.394C320.045 456.718 331.377 455.226 342.694 453.75ZM271.995 458.041C272.103 457.195 272.226 456.364 272.334 455.519C261.078 452.812 249.762 450.551 237.999 451.566C237.907 452.243 237.815 452.935 237.722 453.612C249.147 455.088 260.571 456.549 271.995 458.025V458.041Z" fill="#F4EAEA"/>
<path d="M55.8709 575.682C26.0568 565.871 6.29866 539.867 4.96095 508.896C4.17677 490.903 5.20696 473.065 10.5424 455.78C18.4611 430.145 33.2528 409.707 56.8242 396.082C69.4325 388.793 81.9178 381.304 92.1121 370.601C115.314 346.227 119.604 316.778 115.115 285.022C111.532 259.679 107.719 234.459 112.608 208.763C114.93 196.599 118.482 185.05 124.294 174.147C127.984 171.333 126.785 174.516 126.524 176.069C125.001 185.127 123.264 194.138 121.834 203.211C116.791 234.859 119.235 266.43 122.726 298.048C126.8 334.986 115.068 365.357 84.624 387.901C71.0931 397.912 56.901 407.216 46.1225 420.534C9.80438 465.407 12.0647 527.242 51.6425 570.439C53.1493 572.084 55.3942 573.191 55.8862 575.682H55.8709Z" fill="#EAE4E4"/>
<path d="M554.083 544.988L552.653 546.879C544.812 554.676 536.893 562.38 526.914 567.655C542.198 551.093 552.592 531.993 556.728 510.034C562.386 480.031 556.805 451.597 542.013 425.009C538.554 418.78 534.387 412.952 530.451 407.001C528.344 403.802 531.358 405.494 532.188 405.094C544.412 416.059 555.621 427.9 562.786 442.909C579.792 478.586 576.333 512.617 554.068 544.988H554.083Z" fill="#EAE4E4"/>
<path d="M387.639 180.529C392.313 169.995 402.323 168.042 410.734 176.054C418.376 183.328 420.436 196.583 415.085 208.84C409.827 220.881 400.939 229.308 387.87 232.414C379.643 234.367 378.982 233.491 380.766 225.125C381.089 223.633 381.273 222.126 381.519 220.635C382.473 216.421 383.518 212.223 384.349 207.994C384.994 204.718 385.01 201.028 390.022 201.966C394.512 202.811 396.403 205.795 396.465 210.101C396.496 211.992 394.574 213.699 395.758 215.852C401.785 208.317 399.494 201.058 390.007 198.552C387.255 197.829 385.978 197.183 386.44 194.231C386.855 191.632 388.023 189.986 390.776 189.802C394.328 189.556 397.234 190.97 399.663 193.416C401.493 195.261 403.23 197.199 404.998 199.09C404.399 191.432 399.832 187.541 393.051 186.803C388.669 186.326 387.331 184.435 387.593 180.544L387.639 180.529Z" fill="#EAE4E4"/>
<path d="M201.727 230.077C201.235 233.967 198.344 233.122 195.899 232.952C175.742 231.614 157.905 205.779 163.917 186.465C164.809 183.62 166.378 180.867 168.115 178.407C172.374 172.409 178.34 170.272 185.521 171.779C193.132 173.378 191.625 180.037 192.793 185.188C191.41 187.433 189.072 186.188 187.212 186.695C180.769 188.448 175.88 191.662 174.435 199.336C178.325 198.89 178.325 195.584 180.124 194.061C182.138 192.354 184.291 191.155 186.797 190.478C189.949 189.617 192.886 189.002 193.931 193.446C194.915 197.598 193.07 198.26 189.272 198.982C181.431 200.489 179.263 209.409 185.213 215.56C184.936 212.961 184.383 210.716 184.537 208.501C184.798 204.734 187.074 202.596 190.841 201.904C195.315 201.089 195.807 204.257 196.484 207.302C197.806 213.253 199.098 219.204 200.405 225.171C200.481 225.894 200.558 226.617 200.635 227.355C200.989 228.262 201.343 229.169 201.712 230.077H201.727Z" fill="#F0EFEE"/>
<path d="M272.733 69.5916C271.872 64.686 271.011 59.7958 270.135 54.8902C270.688 54.4135 271.226 53.9368 271.78 53.4601C284.926 86.3691 305.223 112.573 338.619 126.736C332.546 129.551 327.318 127.859 322.075 126.598C316.186 123.107 310.128 119.878 304.454 116.064C287.74 104.823 279.207 87.8915 272.733 69.5916Z" fill="#EAE4E4"/>
<path d="M144.744 252.759C145.006 256.927 145.252 261.094 145.544 265.262C147.143 288.052 158.229 305.998 174.082 321.576C181.555 328.927 189.965 335.386 196.162 343.966C200.821 350.41 204.772 357.222 203.711 365.911C199.698 346.166 183.815 335.724 171.037 322.868C160.659 312.426 151.679 300.862 147.62 286.499C144.545 275.627 141.223 264.57 142.131 253.067C143.007 252.959 143.868 252.852 144.744 252.744V252.759Z" fill="#C7C6C5"/>
<path d="M85.8232 454.396C83.2247 429.56 111.301 389.885 133.981 385.795C108.303 401.911 90.3899 423.44 85.8232 454.396Z" fill="#C7C6C5"/>
<path d="M387.638 180.529C387.377 184.435 388.715 186.326 393.097 186.788C399.878 187.51 404.444 191.416 405.044 199.075C403.26 197.183 401.538 195.246 399.708 193.4C397.264 190.955 394.373 189.54 390.821 189.786C388.069 189.971 386.885 191.601 386.485 194.215C386.024 197.168 387.3 197.798 390.052 198.536C399.524 201.043 401.83 208.301 395.803 215.837C394.619 213.668 396.541 211.977 396.51 210.085C396.433 205.779 394.542 202.796 390.068 201.95C385.055 201.012 385.04 204.703 384.394 207.979C383.564 212.207 382.518 216.406 381.565 220.619C380.627 220.604 379.689 220.588 378.751 220.573C380.95 206.21 383.149 191.862 385.347 177.499C386.131 178.514 386.9 179.514 387.684 180.529H387.638Z" fill="#393636"/>
<path d="M200.42 225.156C199.113 219.205 197.822 213.238 196.499 207.287C195.823 204.242 195.331 201.089 190.856 201.889C187.074 202.566 184.814 204.718 184.552 208.486C184.398 210.685 184.952 212.946 185.229 215.545C179.278 209.393 181.431 200.459 189.288 198.967C193.086 198.244 194.931 197.583 193.947 193.431C192.901 188.987 189.965 189.602 186.812 190.463C184.306 191.155 182.154 192.339 180.139 194.046C178.34 195.569 178.34 198.875 174.45 199.321C175.896 191.647 180.785 188.433 187.228 186.68C189.088 186.173 191.425 187.418 192.809 185.173C193.701 185.173 194.593 185.142 195.485 185.127C198.068 198.49 200.651 211.838 203.234 225.202C202.296 225.202 201.358 225.171 200.436 225.156H200.42Z" fill="#393636"/>
<path d="M272.733 69.5917C279.207 87.8915 287.74 104.823 304.454 116.064C310.128 119.878 316.186 123.107 322.075 126.598L320.214 128.305C294.06 118.54 279.161 98.7792 271.104 72.9595C271.642 71.8369 272.18 70.7143 272.733 69.5917Z" fill="#393636"/>
<path d="M232.233 127.828C241.213 117.079 249.193 106.207 256.497 94.704C257.25 104.9 251.576 112.819 247.763 121.308C244.857 127.767 239.768 129.797 232.233 127.813V127.828Z" fill="#E0DEDE"/>
<path d="M521.994 537.268C525.776 511.971 522.824 487.459 513.599 463.638C525.746 487.443 528.99 512.525 524.377 538.729C523.578 538.237 522.794 537.76 521.994 537.268Z" fill="#C7C6C5"/>
<path d="M378.413 145.082C378.274 147.912 377.598 149.265 373.954 149.004C363.175 148.25 353.15 144.79 343.063 140.976C353.596 140.254 364.39 135.871 374.231 144.083C375.199 144.882 376.445 147.404 378.459 145.144L378.413 145.082Z" fill="#CFCECE"/>
<path d="M211.337 54.6443C191.041 68.0078 178.417 87.1841 169.576 109.267C176.049 85.6617 188.043 66.0086 209.6 53.1218C210.184 53.6293 210.753 54.1214 211.337 54.6289V54.6443Z" fill="#C7C6C5"/>
<path d="M214.151 152.91C209.569 153.786 205.817 157.492 199.667 157C205.725 151.48 210.876 146.343 216.519 141.807C220.548 138.562 228.559 140.038 231.111 143.806L231.172 143.729C228.143 142.576 226.79 143.898 226.498 146.851H226.529C221.27 146.574 218.226 150.788 214.167 152.925L214.151 152.91Z" fill="#E0DEDE"/>
<path d="M421.481 314.471C407.55 302.507 398.786 287.36 393.865 269.767C401 285.499 410.456 299.662 421.973 312.457C421.803 313.118 421.634 313.795 421.465 314.456L421.481 314.471Z" fill="#CFCECE"/>
<path d="M210.03 340.476C208.985 331.895 207.939 323.314 206.894 314.733C207.601 314.671 208.293 314.594 209 314.533C212.552 328.542 213.982 342.736 211.952 357.284L211.491 357.222C207.954 355.3 210.123 352.271 210.015 349.672C210.184 349.533 210.507 349.379 210.492 349.272C210.43 348.887 210.261 348.534 210.122 348.165C210.122 346.104 210.107 344.043 210.092 341.983C210.246 341.829 210.568 341.629 210.538 341.537C210.43 341.168 210.199 340.829 210.03 340.476Z" fill="#CFCECE"/>
<path d="M211.799 358.991C210.738 368.756 209.216 378.398 203.173 386.748C203.603 378.921 207.801 371.847 208.001 364.019C208.078 361.128 210.077 360.221 211.968 359.021L211.799 358.991Z" fill="#C7C6C5"/>
<path d="M211.337 54.6442C210.753 54.1368 210.184 53.6447 209.6 53.1372C220.286 46.2325 231.741 42.3418 244.749 44.4486C233.017 45.9557 221.87 49.3081 211.337 54.6442Z" fill="#CFCECE"/>
<path d="M401.615 148.02C393.589 149.404 385.947 147.697 378.413 145.098L378.459 145.159C382.688 141.545 386.962 144.898 391.206 145.098C394.189 145.236 397.172 145.467 400.155 145.651L401.615 148.035V148.02Z" fill="#C7C6C5"/>
<path d="M427.785 317.439C433.121 320.638 438.441 323.837 443.776 327.035C436.473 327.343 431.199 323.437 426.155 319.008C426.693 318.485 427.247 317.962 427.785 317.439Z" fill="#BBBABA"/>
<path d="M214.151 152.91C218.226 150.772 221.27 146.559 226.514 146.836C225.243 149.327 222.142 151.854 217.211 154.417C216.196 153.909 215.166 153.417 214.151 152.91Z" fill="#393636"/>
<path d="M401.615 148.02C401.123 147.22 400.646 146.436 400.154 145.636C404.183 145.421 408.119 143.483 413.9 144.99C409.134 147.62 405.367 147.789 401.615 148.02Z" fill="#BBBABA"/>
<path d="M521.994 537.268C522.793 537.76 523.578 538.237 524.377 538.729C523.87 540.805 523.378 542.866 522.578 546.141C519.795 542.281 521.625 539.759 521.994 537.268Z" fill="#BBBABA"/>
<path d="M427.786 317.439C427.247 317.962 426.694 318.485 426.156 319.008C424.203 317.931 422.466 316.624 421.481 314.533C422.158 314.364 422.835 314.195 423.511 314.025C424.941 315.163 426.356 316.317 427.786 317.455V317.439Z" fill="#CFCECE"/>
<path d="M194.163 176.008C195.793 178.207 195.347 180.667 195.07 183.112C193.64 180.898 193.917 178.453 194.163 176.008Z" fill="#393636"/>
<path d="M385.609 174.362C384.947 172.686 385.132 171.117 386.208 169.656C386.593 171.302 386.839 172.932 385.609 174.362Z" fill="#393636"/>
<path d="M210.03 340.476C210.215 340.829 210.43 341.168 210.537 341.537C210.568 341.629 210.261 341.829 210.092 341.983C210.061 341.475 210.045 340.968 210.015 340.476H210.03Z" fill="#BBBABA"/>
<path d="M421.481 314.517V314.456C421.651 313.795 421.82 313.118 421.973 312.457C422.481 312.964 422.988 313.487 423.511 313.995C422.835 314.164 422.158 314.333 421.481 314.502V314.517Z" fill="#CFCECE"/>
<path d="M210.138 348.18C210.261 348.549 210.445 348.903 210.507 349.287C210.522 349.395 210.199 349.549 210.03 349.687C210.076 349.179 210.107 348.687 210.153 348.18H210.138Z" fill="#BBBABA"/>
<path d="M211.799 358.991L211.968 359.022C211.814 358.422 211.645 357.822 211.491 357.238L211.952 357.299C211.906 357.868 211.845 358.437 211.799 359.006V358.991Z" fill="#BBBABA"/>
<path d="M201.728 230.077C201.374 229.169 201.02 228.262 200.651 227.355C201.005 228.262 201.359 229.169 201.728 230.077Z" fill="#393636"/>
<path d="M267.721 174.239C263.662 171.902 260.71 168.272 255.528 166.935C255.589 172.84 256.297 178.868 250.977 182.897C248.24 184.973 245.165 185.988 241.705 185.711C233.51 185.035 229.558 178.53 230.296 166.535C223.946 168.134 218.364 174.424 210.399 169.426C222.854 160.261 235.662 153.909 251.207 157.677C259.741 159.738 265.876 165.058 267.736 174.239H267.721Z" fill="#2D2C2C"/>
<path d="M325.043 166.704C319.323 166.935 317.37 172.578 312.85 174.331C315.341 153.756 341.864 151.095 368.818 168.503C363.16 172.255 363.191 172.194 355.518 168.703C352.381 167.273 348.722 164.074 350.106 172.025C351.428 179.591 344.232 186.126 336.344 186.249C329.64 186.357 324.766 180.775 324.689 172.763C324.674 170.795 324.92 168.826 325.043 166.689V166.704Z" fill="#2D2C2C"/>
<path d="M303.193 219.404C297.766 228.093 291.738 228.201 285.342 226.14C281.99 225.048 278.869 223.203 275.67 221.619C273.687 220.635 272.626 219.435 273.549 216.79C279.791 198.967 285.849 181.067 292.261 162.352C294.937 166.473 292.722 169.918 292.768 173.178C292.953 185.665 293.03 198.198 292.415 210.67C292.077 217.59 292.03 222.926 303.178 219.404H303.193ZM289.386 183.804C289.063 183.804 288.74 183.835 288.432 183.85C285.019 193.615 281.667 203.396 278.131 213.115C277.469 214.929 276.685 216.682 278.623 217.82C281.421 219.451 284.481 221.173 287.787 220.496C289.893 220.066 289.355 217.544 289.37 215.852C289.432 205.164 289.401 194.492 289.401 183.804H289.386Z" fill="#2D2C2C"/>
<path d="M292.6 256.189C278.562 256.85 268.214 253.205 258.957 246.254C257.743 245.347 255.221 244.424 256.774 242.256C257.927 240.657 259.449 242.041 260.726 242.871C280.499 255.942 300.18 255.927 319.754 242.425C320.953 241.595 322.26 240.226 323.613 242.072C324.905 243.84 323.321 244.855 322.199 245.731C312.819 253.051 302.179 256.619 292.585 256.189H292.6Z" fill="#2D2C2C"/>
<path d="M226.498 146.851C226.775 143.898 228.143 142.576 231.172 143.729C230.588 146.236 229.389 147.804 226.498 146.851Z" fill="#080808"/>
<path d="M355.472 494.148C349.629 502.452 339.757 504.528 331.424 507.973C314.372 515.031 296.089 517.446 277.5 515.308C276.854 515.231 276.285 514.462 275.686 514.017C283.435 510.357 291.323 508.065 299.764 511.725C301.948 512.679 304.485 513.401 306.438 512.279C318.677 505.205 334.053 505.389 345.031 495.301C347.753 492.81 351.966 494.609 355.456 494.163L355.472 494.148Z" fill="#F0D9E2"/>
<path d="M342.695 453.75C331.363 455.242 320.046 456.718 307.269 458.394C314.618 452.012 331.901 449.598 342.695 453.75Z" fill="#2D2C2C"/>
<path d="M271.996 458.041C260.571 456.564 249.147 455.103 237.723 453.627C237.815 452.951 237.907 452.258 237.999 451.582C249.762 450.567 261.079 452.827 272.334 455.534C272.226 456.38 272.103 457.21 271.996 458.056V458.041Z" fill="#2D2C2C"/>
<path d="M271.119 513.74C259.264 511.787 248.424 506.912 237.615 501.96C235.616 501.053 234.324 499.607 233.955 497.408C244.18 501.114 253.836 506.497 264.876 507.896C268.151 508.311 270.381 510.372 271.134 513.755L271.119 513.74Z" fill="#F0D9E2"/>
<path d="M372.632 477.586C368.757 484.998 363.037 490.488 355.487 494.087C357.04 486.382 365.159 478.555 372.632 477.586Z" fill="#F0D9E2"/>
<path d="M231.187 496.932C224.545 494.856 220.47 489.473 215.75 484.937C225.329 483.23 227.866 490.58 231.187 496.932Z" fill="#E6D1D9"/>
<path d="M289.386 183.804C289.386 194.492 289.417 205.164 289.355 215.852C289.355 217.544 289.878 220.081 287.771 220.496C284.466 221.158 281.406 219.451 278.607 217.821C276.67 216.683 277.454 214.945 278.115 213.115C281.652 203.396 285.004 193.6 288.417 183.85C288.74 183.85 289.063 183.82 289.37 183.804H289.386Z" fill="#E0DEDE"/>
<path d="M175.757 432.036C175.757 432.036 265.261 510.264 290.185 504.467C315.11 498.669 400.846 430.652 400.846 430.652C400.846 430.652 454.355 442.739 464.826 458.225C475.281 473.711 510.6 532.178 513.614 646.821H74.8599C74.8599 646.821 64.6195 510.418 119.988 456.903" fill="#FEC8C0"/>
<path d="M284.055 504.926C264.048 503.676 203.82 455.431 176.206 431.464L149.244 443.578C181.026 464.027 252.482 504.926 284.055 504.926Z" fill="#E5887A"/>
</svg>
