<svg width="513" height="138" viewBox="0 0 513 138" fill="none" xmlns="http://www.w3.org/2000/svg">
<path d="M4.61215 136.924C2.11882 134.09 0.872149 130.464 0.872149 126.044C4.61215 126.044 7.21882 125.42 8.69215 124.174C10.2788 122.927 11.0721 120.717 11.0721 117.544V37.6438C11.0721 34.4705 10.2788 32.2605 8.69215 31.0138C7.21882 29.6538 4.61215 28.9738 0.872149 28.9738C0.872149 24.6672 2.11882 21.0972 4.61215 18.2638H46.0922C47.2255 19.6238 48.1322 21.2672 48.8122 23.1938C49.4922 25.1205 49.8322 27.0472 49.8322 28.9738C46.0922 28.9738 43.4288 29.6538 41.8422 31.0138C40.3688 32.2605 39.6321 34.4705 39.6321 37.6438V69.4338H76.6922V37.6438C76.6922 34.4705 75.8988 32.2605 74.3122 31.0138C72.7255 29.6538 70.1188 28.9738 66.4922 28.9738C66.4922 24.6672 67.7388 21.0972 70.2322 18.2638H111.882C114.375 21.0972 115.622 24.6672 115.622 28.9738C111.995 28.9738 109.332 29.6538 107.632 31.0138C106.045 32.2605 105.252 34.4705 105.252 37.6438V117.544C105.252 120.717 106.045 122.927 107.632 124.174C109.332 125.42 111.995 126.044 115.622 126.044C115.622 130.464 114.375 134.09 111.882 136.924H70.2322C67.7388 134.09 66.4922 130.464 66.4922 126.044C70.1188 126.044 72.7255 125.42 74.3122 124.174C75.8988 122.927 76.6922 120.717 76.6922 117.544V83.7138H39.6321V117.544C39.6321 120.717 40.3688 122.927 41.8422 124.174C43.4288 125.42 46.0922 126.044 49.8322 126.044C49.8322 128.084 49.4922 130.067 48.8122 131.994C48.1322 133.92 47.2255 135.564 46.0922 136.924H4.61215ZM146.666 32.7138C141.792 32.7138 137.882 31.2972 134.936 28.4638C132.102 25.5172 130.686 21.6072 130.686 16.7338C130.686 11.9738 132.159 8.12049 135.106 5.17382C138.166 2.22715 142.132 0.753818 147.006 0.753818C151.992 0.753818 155.902 2.22715 158.736 5.17382C161.682 8.12049 163.156 11.9738 163.156 16.7338C163.156 21.6072 161.626 25.5172 158.566 28.4638C155.619 31.2972 151.652 32.7138 146.666 32.7138ZM127.626 136.924C126.379 135.677 125.416 134.317 124.736 132.844C124.056 131.37 123.716 129.67 123.716 127.744C127.002 127.744 129.439 127.064 131.026 125.704C132.612 124.23 133.406 121.794 133.406 118.394V69.0938C133.406 66.1472 132.669 63.9372 131.196 62.4638C129.836 60.9905 126.832 60.2538 122.186 60.2538V52.7738C123.886 51.7538 126.492 50.6205 130.006 49.3738C133.519 48.0138 137.316 46.8805 141.396 45.9738C145.589 45.0672 149.329 44.6138 152.616 44.6138C155.222 44.6138 157.092 45.2372 158.226 46.4838C159.359 47.6172 159.926 49.6005 159.926 52.4338V118.564C159.926 121.964 160.776 124.344 162.476 125.704C164.176 127.064 166.669 127.744 169.956 127.744C169.956 129.67 169.616 131.37 168.936 132.844C168.256 134.317 167.292 135.677 166.046 136.924H127.626ZM278.384 136.924C275.891 134.09 274.644 130.464 274.644 126.044C278.384 126.044 280.991 125.42 282.464 124.174C284.051 122.927 284.844 120.717 284.844 117.544V37.6438C284.844 34.4705 284.051 32.2605 282.464 31.0138C280.991 29.6538 278.384 28.9738 274.644 28.9738C274.644 24.6672 275.891 21.0972 278.384 18.2638H319.694C320.827 19.6238 321.734 21.2672 322.414 23.1938C323.094 25.1205 323.434 27.0472 323.434 28.9738C319.694 28.9738 317.031 29.6538 315.444 31.0138C313.971 32.2605 313.234 34.4705 313.234 37.6438V117.544C313.234 120.717 313.971 122.927 315.444 124.174C317.031 125.42 319.694 126.044 323.434 126.044C323.434 128.084 323.094 130.067 322.414 131.994C321.734 133.92 320.827 135.564 319.694 136.924H278.384ZM337.143 64.6738C335.896 64.2205 334.763 63.2572 333.743 61.7838C332.723 60.1972 332.213 58.5538 332.213 56.8538C336.859 53.9072 340.543 50.2805 343.263 45.9738C345.983 41.5538 347.343 37.1338 347.343 32.7138C347.343 32.3738 347.343 32.0338 347.343 31.6938C347.343 31.3538 347.286 30.9572 347.173 30.5038C346.946 30.6172 346.549 30.6738 345.983 30.6738C345.529 30.6738 345.133 30.6738 344.793 30.6738C340.259 30.6738 336.803 29.1438 334.423 26.0838C332.156 22.9105 331.023 19.3972 331.023 15.5438C331.023 10.8972 332.383 7.15715 335.103 4.32382C337.936 1.49049 341.449 0.0738168 345.643 0.0738168C350.629 0.0738168 354.766 1.94382 358.053 5.68383C361.339 9.42382 362.983 15.3172 362.983 23.3638C362.983 30.5038 361.679 36.9638 359.073 42.7438C356.579 48.4105 353.349 53.1705 349.383 57.0238C345.529 60.7638 341.449 63.3138 337.143 64.6738ZM491.733 137.944C487.539 137.944 483.913 137.377 480.853 136.244C477.906 134.997 476.433 132.617 476.433 129.104V72.4938C476.433 68.8672 475.413 66.0905 473.373 64.1638C471.446 62.1238 468.839 61.1038 465.553 61.1038C463.739 61.1038 461.869 61.4438 459.943 62.1238C458.129 62.8038 456.486 63.8238 455.013 65.1838C455.126 65.6372 455.183 66.0905 455.183 66.5438C455.183 66.8838 455.183 67.2805 455.183 67.7338V118.564C455.183 121.85 455.863 124.23 457.223 125.704C458.583 127.064 460.736 127.744 463.683 127.744C463.683 129.557 463.286 131.257 462.493 132.844C461.813 134.317 460.849 135.677 459.603 136.924H423.393C422.259 135.677 421.296 134.317 420.503 132.844C419.823 131.257 419.483 129.557 419.483 127.744C422.429 127.744 424.469 127.064 425.603 125.704C426.849 124.23 427.473 121.85 427.473 118.564V72.4938C427.473 68.8672 426.396 66.0905 424.243 64.1638C422.203 62.1238 419.709 61.1038 416.763 61.1038C414.609 61.1038 412.399 61.6138 410.133 62.6338C407.866 63.6538 405.939 65.1272 404.353 67.0538V118.564C404.353 121.85 404.919 124.23 406.053 125.704C407.299 127.064 409.339 127.744 412.173 127.744C412.173 131.257 410.813 134.317 408.093 136.924H371.203C369.956 135.677 368.936 134.317 368.143 132.844C367.463 131.257 367.123 129.557 367.123 127.744C370.523 127.744 372.959 127.064 374.433 125.704C375.906 124.23 376.643 121.85 376.643 118.564V68.7538C376.643 65.8072 375.793 63.6538 374.093 62.2938C372.506 60.9338 369.559 60.2538 365.253 60.2538V52.7738C367.859 51.1872 371.146 49.7705 375.113 48.5238C379.193 47.2772 383.103 46.3138 386.843 45.6338C390.696 44.8405 393.643 44.4438 395.683 44.4438C397.949 44.4438 399.819 45.1805 401.293 46.6538C402.879 48.0138 403.899 50.9038 404.353 55.3238C407.299 52.0372 410.983 49.4305 415.403 47.5038C419.936 45.4638 425.036 44.4438 430.703 44.4438C442.036 44.4438 449.403 48.2405 452.803 55.8338C455.749 52.2072 459.546 49.4305 464.193 47.5038C468.953 45.4638 474.223 44.4438 480.003 44.4438C488.163 44.4438 494.226 46.4272 498.193 50.3938C502.273 54.3605 504.313 60.1405 504.313 67.7338V118.564C504.313 121.17 505.049 123.154 506.523 124.514C507.996 125.874 510.036 126.837 512.643 127.404V132.334C510.603 134.147 507.939 135.564 504.653 136.584C501.366 137.49 497.059 137.944 491.733 137.944Z" fill="#2D3B66"/>
</svg>
