<svg width="43" height="44" viewBox="0 0 43 44" fill="none" xmlns="http://www.w3.org/2000/svg">
<path d="M28.1847 14.2543C28.3885 14.4336 28.5855 14.6181 28.7816 14.8058C28.847 14.865 28.9123 14.9242 28.9797 14.9852C30.9081 16.7973 31.9844 19.5001 32.0805 22.1184C32.1503 25.0394 31.227 27.8012 29.2133 29.952C29.152 30.0158 29.0908 30.0797 29.0277 30.1455C28.9657 30.2128 28.9036 30.28 28.8396 30.3493C27.7348 31.51 26.3415 32.3098 24.8442 32.8525C24.7582 32.8838 24.6722 32.9151 24.5837 32.9474C21.8588 33.8614 18.8303 33.5482 16.272 32.2886C15.1648 31.7187 14.2272 30.9542 13.3599 30.0635C13.3183 30.0256 13.2768 29.9878 13.2339 29.9488C11.5136 28.342 10.5054 25.6863 10.3965 23.3652C10.3111 20.3166 11.1445 17.501 13.2564 15.2454C13.3176 15.1815 13.3788 15.1177 13.4419 15.0519C13.504 14.9846 13.566 14.9174 13.63 14.8481C17.4204 10.866 24.0609 10.8051 28.1847 14.2543ZM16.5591 17.4308C16.4966 17.4854 16.4341 17.5401 16.3697 17.5964C15.0823 18.799 14.3338 20.5496 14.2491 22.2949C14.2024 24.2504 14.8716 26.0053 16.2117 27.4193C16.2722 27.4798 16.3327 27.5402 16.395 27.6026C16.4521 27.6597 16.5092 27.7168 16.568 27.7756C17.9278 29.0559 19.7066 29.6395 21.5559 29.5918C23.1798 29.5147 24.7003 28.8313 25.9106 27.7666C25.9731 27.712 26.0355 27.6573 26.0999 27.601C27.3925 26.3935 28.113 24.6295 28.2202 22.882C28.2799 21.0438 27.6126 19.2982 26.4027 17.9229C26.3481 17.8604 26.2934 17.798 26.2371 17.7336C25.0296 16.441 23.2656 15.7205 21.5181 15.6133C19.6799 15.5536 17.9344 16.2209 16.5591 17.4308Z" fill="#F84C35"/>
<path d="M8.13498 0.953175C8.25244 0.952868 8.36991 0.952491 8.48737 0.952049C8.8083 0.951051 9.12923 0.951067 9.45016 0.951261C9.79704 0.951294 10.1439 0.950387 10.4908 0.949611C11.1697 0.948251 11.8487 0.947797 12.5276 0.947706C13.0799 0.947627 13.6322 0.94729 14.1845 0.94677C15.7523 0.945326 17.32 0.944569 18.8878 0.944692C19.0145 0.944702 19.0145 0.944702 19.1437 0.944712C19.2283 0.944718 19.3128 0.944725 19.3999 0.944732C20.7691 0.944798 22.1382 0.94323 23.5074 0.940915C24.9152 0.938555 26.323 0.937426 27.7308 0.937568C28.5204 0.937622 29.31 0.937177 30.0996 0.935406C30.772 0.933907 31.4445 0.933559 32.1169 0.934669C32.4595 0.935202 32.8021 0.935223 33.1446 0.933791C35.7855 0.923428 35.7855 0.923428 36.9032 1.30324C36.9726 1.32622 37.042 1.34921 37.1135 1.3729C39.1464 2.11275 40.7502 3.7096 41.661 5.65086C42.1043 6.71076 42.2598 7.73178 42.2571 8.87463C42.2574 8.9921 42.2578 9.10956 42.2582 9.22703C42.2592 9.54796 42.2592 9.86888 42.259 10.1898C42.259 10.5367 42.2599 10.8836 42.2607 11.2304C42.262 11.9094 42.2625 12.5883 42.2626 13.2673C42.2627 13.8196 42.263 14.3718 42.2635 14.9241C42.265 16.4919 42.2657 18.0597 42.2656 19.6275C42.2656 19.7542 42.2656 19.7542 42.2656 19.8834C42.2656 19.9679 42.2656 20.0525 42.2656 20.1396C42.2655 21.5087 42.2671 22.8779 42.2694 24.2471C42.2717 25.6549 42.2729 27.0627 42.2727 28.4705C42.2727 29.2601 42.2731 30.0496 42.2749 30.8392C42.2764 31.5117 42.2767 32.1841 42.2756 32.8566C42.2751 33.1992 42.2751 33.5417 42.2765 33.8843C42.2869 36.5252 42.2869 36.5252 41.9071 37.6428C41.8841 37.7122 41.8611 37.7816 41.8374 37.8531C41.0975 39.886 39.5007 41.4898 37.5594 42.4006C36.4995 42.844 35.4785 42.9995 34.3357 42.9968C34.2182 42.9971 34.1007 42.9975 33.9833 42.9979C33.6623 42.9989 33.3414 42.9989 33.0205 42.9987C32.6736 42.9986 32.3267 42.9996 31.9799 43.0003C31.3009 43.0017 30.622 43.0021 29.943 43.0022C29.3907 43.0023 28.8384 43.0027 28.2862 43.0032C26.7184 43.0046 25.1506 43.0054 23.5828 43.0052C23.4561 43.0052 23.4561 43.0052 23.3269 43.0052C23.2424 43.0052 23.1578 43.0052 23.0707 43.0052C21.7016 43.0051 20.3324 43.0067 18.9632 43.009C17.5554 43.0114 16.1476 43.0125 14.7398 43.0124C13.9502 43.0123 13.1607 43.0128 12.3711 43.0145C11.6986 43.016 11.0262 43.0164 10.3537 43.0153C10.0111 43.0147 9.66857 43.0147 9.32598 43.0162C6.68513 43.0265 6.68513 43.0265 5.56745 42.6467C5.46335 42.6122 5.46335 42.6122 5.35714 42.577C3.32428 41.8372 1.72047 40.2403 0.809673 38.2991C0.366298 37.2392 0.210826 36.2182 0.213521 35.0753C0.213214 34.9578 0.212836 34.8404 0.212394 34.7229C0.211396 34.402 0.211412 34.0811 0.211606 33.7601C0.21164 33.4132 0.210733 33.0664 0.209956 32.7195C0.208596 32.0406 0.208143 31.3616 0.208051 30.6827C0.207973 30.1304 0.207635 29.5781 0.207116 29.0258C0.205672 27.458 0.204914 25.8902 0.205037 24.3224C0.205044 24.238 0.20505 24.1536 0.205057 24.0666C0.205064 23.982 0.20507 23.8975 0.205077 23.8104C0.205144 22.4412 0.203575 21.0721 0.201261 19.7029C0.1989 18.2951 0.197771 16.8873 0.197913 15.4795C0.197967 14.6899 0.197522 13.9003 0.195751 13.1107C0.194252 12.4383 0.193904 11.7658 0.195014 11.0934C0.195547 10.7508 0.195569 10.4082 0.194136 10.0656C0.183774 7.42479 0.183773 7.42479 0.563581 6.30711C0.58657 6.23771 0.609559 6.1683 0.633244 6.0968C1.37309 4.06393 2.96995 2.46013 4.91121 1.54933C5.97111 1.10595 6.99213 0.95048 8.13498 0.953175ZM4.66512 4.91259C4.60632 4.96218 4.54753 5.01177 4.48696 5.06287C3.39298 6.06992 2.95542 7.40814 2.86044 8.85006C2.83212 9.63375 2.83763 10.4183 2.83899 11.2024C2.83937 11.5209 2.83879 11.8394 2.83834 12.1579C2.83761 12.7802 2.83777 13.4025 2.83824 14.0247C2.83862 14.5309 2.83866 15.0371 2.83849 15.5432C2.83846 15.6155 2.83844 15.6878 2.83841 15.7623C2.83836 15.9092 2.8383 16.0561 2.83825 16.203C2.83778 17.5776 2.83832 18.9521 2.8392 20.3267C2.83994 21.5037 2.83981 22.6808 2.83905 23.8578C2.83817 25.2278 2.83783 26.5977 2.83833 27.9677C2.83838 28.114 2.83844 28.2604 2.83849 28.4067C2.83851 28.4787 2.83854 28.5507 2.83856 28.6249C2.8387 29.1299 2.83847 29.6349 2.83808 30.1399C2.83762 30.7561 2.83775 31.3723 2.83862 31.9885C2.83905 32.3023 2.83922 32.6162 2.83868 32.93C2.81744 36.1484 2.81744 36.1484 4.45587 38.8348C5.81404 40.1141 7.36643 40.3774 9.17084 40.3707C9.3329 40.3711 9.3329 40.3711 9.49825 40.3715C9.79425 40.3721 10.0903 40.3718 10.3863 40.3713C10.707 40.3709 11.0278 40.3715 11.3485 40.3719C11.9753 40.3727 12.6021 40.3725 13.2289 40.372C13.7387 40.3717 14.2485 40.3716 14.7583 40.3718C14.8675 40.3718 14.8675 40.3718 14.9789 40.3719C15.1268 40.3719 15.2747 40.372 15.4226 40.372C16.8068 40.3725 18.1909 40.372 19.5751 40.3711C20.7607 40.3704 21.9462 40.3705 23.1318 40.3712C24.5113 40.3721 25.8908 40.3725 27.2703 40.372C27.4177 40.3719 27.565 40.3719 27.7123 40.3718C27.7848 40.3718 27.8573 40.3717 27.9319 40.3717C28.4406 40.3716 28.9493 40.3718 29.458 40.3722C30.0787 40.3727 30.6993 40.3725 31.3199 40.3717C31.6361 40.3712 31.9522 40.3711 32.2684 40.3716C32.6122 40.3722 32.956 40.3715 33.2998 40.3707C33.3981 40.371 33.4965 40.3714 33.5978 40.3718C35.3579 40.3638 36.8003 40.0073 38.0952 38.7544C39.7214 37.028 39.6355 34.9772 39.6316 32.7475C39.6313 32.429 39.6318 32.1105 39.6323 31.792C39.633 31.1697 39.6329 30.5475 39.6324 29.9252C39.632 29.419 39.632 28.9129 39.6321 28.4067C39.6322 28.2983 39.6322 28.2983 39.6322 28.1877C39.6323 28.0407 39.6323 27.8938 39.6324 27.7469C39.6328 26.3724 39.6323 24.9978 39.6314 23.6232C39.6307 22.4462 39.6308 21.2692 39.6316 20.0921C39.6325 18.7222 39.6328 17.3522 39.6323 15.9822C39.6322 15.8359 39.6322 15.6896 39.6321 15.5432C39.6321 15.4712 39.6321 15.3992 39.6321 15.3251C39.6319 14.8201 39.6322 14.3151 39.6326 13.8101C39.633 13.1939 39.6329 12.5777 39.632 11.9614C39.6316 11.6476 39.6314 11.3338 39.632 11.0199C39.657 7.95443 39.657 7.95443 38.2157 5.32274C38.1703 5.26818 38.1249 5.21361 38.0782 5.1574C37.0612 4.03691 35.6102 3.66156 34.1573 3.5851C33.8713 3.57923 33.5858 3.5782 33.2998 3.57926C33.1917 3.57901 33.0837 3.57875 32.9724 3.57849C32.6764 3.57781 32.3804 3.57814 32.0844 3.57865C31.7636 3.57902 31.4429 3.57844 31.1221 3.578C30.4953 3.57727 29.8685 3.57742 29.2417 3.5779C28.7319 3.57827 28.2221 3.57832 27.7123 3.57814C27.6031 3.5781 27.6031 3.5781 27.4918 3.57806C27.3439 3.57801 27.196 3.57796 27.0481 3.57791C25.6639 3.57744 24.2797 3.57797 22.8955 3.57886C21.7099 3.57959 20.5244 3.57946 19.3388 3.57871C17.9593 3.57783 16.5798 3.57748 15.2003 3.57799C15.053 3.57804 14.9056 3.57809 14.7583 3.57814C14.6858 3.57817 14.6134 3.57819 14.5387 3.57822C14.03 3.57836 13.5213 3.57812 13.0126 3.57773C12.392 3.57727 11.7713 3.5774 11.1507 3.57827C10.8346 3.5787 10.5184 3.57888 10.2023 3.57833C9.85846 3.57774 9.51465 3.57845 9.17084 3.57926C9.02331 3.57871 9.02331 3.57871 8.8728 3.57815C7.28464 3.5854 5.90665 3.86129 4.66512 4.91259Z" fill="#F84C35"/>
<path d="M33.9895 9.28473C34.5212 9.72033 34.8799 10.2698 35.0133 10.9503C35.0903 11.7943 34.9111 12.5055 34.3657 13.1613C33.7646 13.7457 33.1424 13.9265 32.3283 13.9298C31.6646 13.9187 31.0568 13.7335 30.5836 13.2472C30.0773 12.5835 29.7992 11.9223 29.8598 11.0775C29.9707 10.3639 30.2974 9.78064 30.8502 9.31485C31.8129 8.63117 33.011 8.62631 33.9895 9.28473Z" fill="#F84C35"/>
</svg>
