<svg width="43" height="44" viewBox="0 0 43 44" fill="none" xmlns="http://www.w3.org/2000/svg">
<path d="M8.49826 0.953175C8.61572 0.952868 8.73319 0.952491 8.85065 0.952049C9.17158 0.951051 9.49251 0.951067 9.81345 0.951261C10.1603 0.951294 10.5072 0.950387 10.8541 0.949611C11.533 0.948251 12.212 0.947797 12.8909 0.947706C13.4432 0.947627 13.9955 0.94729 14.5477 0.94677C16.1155 0.945326 17.6833 0.944569 19.2511 0.944692C19.3778 0.944702 19.3778 0.944702 19.507 0.944712C19.5915 0.944718 19.6761 0.944725 19.7632 0.944732C21.1324 0.944798 22.5015 0.94323 23.8707 0.940915C25.2785 0.938555 26.6863 0.937426 28.0941 0.937568C28.8837 0.937622 29.6733 0.937177 30.4628 0.935406C31.1353 0.933907 31.8077 0.933559 32.4802 0.934669C32.8228 0.935202 33.1653 0.935223 33.5079 0.933791C36.1488 0.923428 36.1488 0.923428 37.2665 1.30324C37.3359 1.32622 37.4053 1.34921 37.4768 1.3729C39.5096 2.11275 41.1134 3.7096 42.0242 5.65086C42.4676 6.71076 42.6231 7.73178 42.6204 8.87463C42.6207 8.9921 42.6211 9.10956 42.6215 9.22702C42.6225 9.54796 42.6225 9.86888 42.6223 10.1898C42.6223 10.5367 42.6232 10.8836 42.624 11.2304C42.6253 11.9094 42.6258 12.5883 42.6259 13.2673C42.6259 13.8196 42.6263 14.3718 42.6268 14.9241C42.6282 16.4919 42.629 18.0597 42.6289 19.6275C42.6289 19.7542 42.6289 19.7542 42.6289 19.8834C42.6288 19.9679 42.6288 20.0525 42.6288 20.1396C42.6288 21.5087 42.6303 22.8779 42.6327 24.2471C42.635 25.6549 42.6361 27.0627 42.636 28.4705C42.6359 29.2601 42.6364 30.0496 42.6382 30.8392C42.6397 31.5117 42.64 32.1841 42.6389 32.8566C42.6384 33.1992 42.6383 33.5417 42.6398 33.8843C42.6501 36.5252 42.6501 36.5252 42.2703 37.6428C42.2473 37.7122 42.2244 37.7816 42.2007 37.8531C41.4608 39.886 39.864 41.4898 37.9227 42.4006C36.8628 42.844 35.8418 42.9995 34.6989 42.9968C34.5815 42.9971 34.464 42.9975 34.3465 42.9979C34.0256 42.9989 33.7047 42.9989 33.3837 42.9987C33.0369 42.9986 32.69 42.9996 32.3431 43.0003C31.6642 43.0017 30.9852 43.0021 30.3063 43.0022C29.754 43.0023 29.2017 43.0027 28.6495 43.0032C27.0817 43.0046 25.5139 43.0054 23.9461 43.0052C23.8194 43.0052 23.8194 43.0052 23.6902 43.0052C23.6057 43.0052 23.5211 43.0052 23.434 43.0052C22.0648 43.0051 20.6957 43.0067 19.3265 43.009C17.9187 43.0114 16.5109 43.0125 15.1031 43.0124C14.3135 43.0123 13.5239 43.0128 12.7344 43.0145C12.0619 43.016 11.3895 43.0164 10.717 43.0153C10.3744 43.0147 10.0318 43.0147 9.68926 43.0162C7.04841 43.0265 7.04841 43.0265 5.93073 42.6467C5.82663 42.6122 5.82663 42.6122 5.72042 42.577C3.68756 41.8372 2.08376 40.2403 1.17295 38.2991C0.729579 37.2392 0.574107 36.2182 0.576802 35.0753C0.576495 34.9578 0.576117 34.8404 0.575676 34.7229C0.574677 34.402 0.574694 34.0811 0.574888 33.7601C0.574921 33.4133 0.574014 33.0664 0.573237 32.7195C0.571877 32.0406 0.571424 31.3616 0.571332 30.6827C0.571254 30.1304 0.570917 29.5781 0.570397 29.0258C0.568953 27.458 0.568195 25.8902 0.568318 24.3224C0.568325 24.238 0.568331 24.1536 0.568338 24.0666C0.568345 23.982 0.568351 23.8975 0.568358 23.8104C0.568425 22.4412 0.566856 21.0721 0.564542 19.7029C0.562181 18.2951 0.561053 16.8873 0.561194 15.4795C0.561249 14.6899 0.560803 13.9003 0.559032 13.1107C0.557533 12.4383 0.557186 11.7658 0.558295 11.0934C0.558828 10.7508 0.55885 10.4082 0.557417 10.0656C0.547055 7.42479 0.547055 7.42479 0.926862 6.30711C0.949851 6.23771 0.97284 6.1683 0.996525 6.0968C1.73637 4.06393 3.33323 2.46013 5.27449 1.54933C6.33439 1.10595 7.35541 0.95048 8.49826 0.953175ZM5.0284 4.91259C4.9696 4.96218 4.91081 5.01177 4.85024 5.06287C3.75626 6.06992 3.31871 7.40814 3.22372 8.85006C3.1954 9.63375 3.20091 10.4183 3.20227 11.2024C3.20265 11.5209 3.20207 11.8394 3.20162 12.1579C3.2009 12.7802 3.20105 13.4025 3.20153 14.0247C3.2019 14.5309 3.20195 15.0371 3.20177 15.5432C3.20174 15.6155 3.20172 15.6878 3.20169 15.7623C3.20164 15.9092 3.20159 16.0561 3.20153 16.203C3.20106 17.5776 3.2016 18.9521 3.20248 20.3267C3.20322 21.5037 3.20309 22.6808 3.20233 23.8578C3.20145 25.2278 3.20111 26.5977 3.20161 27.9677C3.20167 28.114 3.20172 28.2604 3.20177 28.4067C3.20179 28.4787 3.20182 28.5507 3.20184 28.6249C3.20199 29.1299 3.20175 29.6349 3.20136 30.1399C3.2009 30.7561 3.20103 31.3723 3.2019 31.9885C3.20233 32.3023 3.2025 32.6162 3.20196 32.93C3.18073 36.1484 3.18073 36.1484 4.81915 38.8348C6.17732 40.1141 7.72971 40.3774 9.53412 40.3707C9.69619 40.3711 9.69619 40.3711 9.86153 40.3715C10.1575 40.3721 10.4535 40.3718 10.7495 40.3713C11.0703 40.3709 11.391 40.3715 11.7118 40.3719C12.3386 40.3727 12.9654 40.3725 13.5922 40.372C14.102 40.3717 14.6118 40.3716 15.1216 40.3718C15.2308 40.3718 15.2308 40.3718 15.3422 40.3719C15.4901 40.3719 15.638 40.372 15.7859 40.372C17.17 40.3725 18.5542 40.372 19.9384 40.3711C21.124 40.3704 22.3095 40.3705 23.4951 40.3712C24.8746 40.3721 26.2541 40.3725 27.6336 40.372C27.7809 40.3719 27.9283 40.3719 28.0756 40.3718C28.1481 40.3718 28.2206 40.3718 28.2952 40.3717C28.8039 40.3716 29.3126 40.3718 29.8213 40.3722C30.4419 40.3727 31.0626 40.3725 31.6832 40.3717C31.9993 40.3712 32.3155 40.3711 32.6316 40.3716C32.9755 40.3722 33.3193 40.3715 33.6631 40.3707C33.7614 40.371 33.8598 40.3714 33.9611 40.3718C35.7212 40.3638 37.1636 40.0073 38.4585 38.7544C40.0846 37.028 39.9988 34.9772 39.9949 32.7475C39.9945 32.429 39.9951 32.1105 39.9956 31.792C39.9963 31.1697 39.9961 30.5475 39.9957 29.9252C39.9953 29.419 39.9952 28.9129 39.9954 28.4067C39.9955 28.2983 39.9955 28.2983 39.9955 28.1877C39.9956 28.0407 39.9956 27.8938 39.9957 27.7469C39.9961 26.3724 39.9956 24.9978 39.9947 23.6232C39.994 22.4462 39.9941 21.2692 39.9949 20.0921C39.9957 18.7222 39.9961 17.3522 39.9956 15.9822C39.9955 15.8359 39.9955 15.6896 39.9954 15.5432C39.9954 15.4712 39.9954 15.3992 39.9954 15.3251C39.9952 14.8201 39.9954 14.3151 39.9958 13.8101C39.9963 13.1939 39.9962 12.5777 39.9953 11.9614C39.9949 11.6476 39.9947 11.3338 39.9952 11.0199C40.0203 7.95443 40.0203 7.95443 38.579 5.32274C38.5336 5.26818 38.4882 5.21361 38.4415 5.1574C37.4245 4.03691 35.9735 3.66156 34.5206 3.5851C34.2346 3.57923 33.9491 3.5782 33.6631 3.57926C33.555 3.57901 33.447 3.57875 33.3357 3.57849C33.0397 3.57781 32.7437 3.57814 32.4477 3.57865C32.1269 3.57902 31.8062 3.57844 31.4854 3.57799C30.8586 3.57727 30.2318 3.57742 29.605 3.5779C29.0952 3.57827 28.5854 3.57832 28.0756 3.57814C27.9664 3.5781 27.9664 3.5781 27.855 3.57806C27.7071 3.57801 27.5592 3.57796 27.4113 3.57791C26.0272 3.57744 24.643 3.57797 23.2588 3.57886C22.0732 3.57959 20.8877 3.57946 19.7021 3.57871C18.3226 3.57783 16.9431 3.57748 15.5636 3.57799C15.4163 3.57804 15.2689 3.57809 15.1216 3.57814C15.0491 3.57817 14.9766 3.57819 14.902 3.57822C14.3933 3.57836 13.8846 3.57812 13.3759 3.57773C12.7553 3.57727 12.1346 3.5774 11.514 3.57827C11.1979 3.5787 10.8817 3.57888 10.5656 3.57833C10.2217 3.57774 9.87794 3.57845 9.53412 3.57926C9.38659 3.57871 9.38659 3.57871 9.23608 3.57815C7.64792 3.5854 6.26993 3.86129 5.0284 4.91259Z" fill="#F84C35"/>
<path d="M30.4993 18.2958C31.7848 19.0814 32.3394 20.0835 32.7704 21.5108C33.0688 22.762 33.083 23.9658 33.0671 25.2467C33.0664 25.4818 33.0656 25.717 33.0648 25.9593C33.0619 26.7028 33.0551 27.4462 33.0483 28.1897C33.0456 28.6969 33.0431 29.2042 33.0409 29.7115C33.0355 30.9483 33.025 32.1849 33.0147 33.4217C31.421 33.4217 29.8272 33.4217 28.1852 33.4217C28.1701 32.4956 28.1701 32.4956 28.1548 31.5508C28.1424 30.9479 28.1286 30.3449 28.1148 29.7419C28.1059 29.3253 28.0984 28.9087 28.0922 28.4921C28.0832 27.8905 28.0691 27.2892 28.0542 26.6878C28.0525 26.5038 28.0508 26.3198 28.049 26.1303C28.0108 24.8557 27.793 23.3704 26.8437 22.4211C25.4254 22.2762 25.4254 22.2762 24.1456 22.7574C23.0391 23.7514 23.1216 25.4243 23.0221 26.8316C22.9754 27.8321 22.9444 28.8318 22.9197 29.833C22.9093 30.1793 22.8989 30.5255 22.8882 30.8822C22.8631 31.7286 22.8408 32.5751 22.819 33.4217C21.3138 33.4217 19.8086 33.4217 18.2578 33.4217C18.2578 28.3748 18.2578 23.3279 18.2578 18.1281C19.763 18.1281 21.2682 18.1281 22.819 18.1281C22.9076 18.5708 22.9961 19.0135 23.0873 19.4697C23.3364 19.2538 23.5854 19.038 23.842 18.8157C25.5267 17.3556 28.52 17.3941 30.4993 18.2958Z" fill="#F84C35"/>
<path d="M10.4727 18.1281C12.1549 18.1281 13.8372 18.1281 15.5705 18.1281C15.5705 23.1749 15.5705 28.2218 15.5705 33.4216C13.8882 33.4216 12.2059 33.4216 10.4727 33.4216C10.4727 28.3748 10.4727 23.3279 10.4727 18.1281Z" fill="#F84C35"/>
<path d="M14.2302 10.6155C15.0003 11.0968 15.4352 11.4158 15.84 12.2254C15.9553 14.6069 15.9553 14.6069 15.3034 15.445C14.246 16.291 13.4173 16.3929 12.0837 16.25C11.3354 15.9174 10.8915 15.637 10.39 14.9923C10.1137 14.0626 10.0469 13.1775 10.2056 12.2254C11.2689 10.5595 12.3455 10.3714 14.2302 10.6155Z" fill="#F84C35"/>
</svg>
