<svg width="42" height="39" viewBox="0 0 42 39" fill="none" xmlns="http://www.w3.org/2000/svg">
<path d="M7.86599 0.344128C8.03768 0.341065 8.03768 0.341065 8.21285 0.33794C8.99283 0.335726 9.66789 0.407133 10.3985 0.708896C11.2065 1.51886 11.5809 2.42086 12.0009 3.47332C12.0696 3.64137 12.1384 3.80942 12.2092 3.98256C12.4272 4.51649 12.6427 5.05138 12.8581 5.58637C13.0054 5.9486 13.1528 6.31077 13.3004 6.67286C13.6238 7.4664 13.9455 8.26058 14.2658 9.05538C14.3583 9.27823 14.4594 9.49765 14.5673 9.71346C14.7439 10.5348 14.6836 11.1634 14.2853 11.9086C13.5454 12.9869 12.7257 13.9795 11.8413 14.944C11.473 15.5308 11.4736 15.8672 11.5658 16.5503C11.8219 17.1092 11.8219 17.1092 12.2015 17.6446C12.2684 17.7441 12.3352 17.8437 12.4041 17.9463C15.6264 22.6685 19.9745 26.5596 25.4061 28.5563C26.0732 28.6172 26.3073 28.6204 26.8756 28.2541C27.8195 27.3789 28.5852 26.3133 29.3632 25.293C29.4385 25.1943 29.5138 25.0956 29.5914 24.994C29.7381 24.8009 29.8842 24.6072 30.0294 24.413C30.5393 23.7386 30.5393 23.7386 30.9089 23.5538C32.5044 23.4266 33.8927 24.2855 35.2653 24.9816C35.5001 25.0983 35.735 25.2148 35.9701 25.3311C36.5554 25.6213 37.139 25.9148 37.7222 26.2091C38.0916 26.3948 38.4617 26.5788 38.8321 26.7624C38.9538 26.8228 39.0756 26.8833 39.201 26.9456C39.4332 27.0608 39.6654 27.1758 39.8978 27.2905C40.3689 27.5249 40.8089 27.7637 41.2475 28.0561C41.8023 29.7206 41.2565 31.9168 40.5492 33.4651C39.3147 35.6777 36.8342 37.0139 34.4837 37.7459C31.785 38.3839 28.8185 37.966 26.2399 37.0607C26.1036 37.0142 25.9674 36.9677 25.827 36.9198C22.2854 35.6957 18.9286 34.1088 15.9013 31.8914C15.7977 31.8158 15.694 31.7402 15.5872 31.6623C13.9704 30.4691 12.5091 29.1172 11.0655 27.7226C10.9784 27.6391 10.8913 27.5556 10.8015 27.4696C9.685 26.397 8.69298 25.265 7.7305 24.0541C7.49431 23.7726 7.25807 23.4913 7.02181 23.2099C3.70081 19.1296 0.516972 14.3701 0.893704 8.87971C1.20042 5.91273 2.44547 3.47418 4.56223 1.3759C5.63024 0.518283 6.52862 0.345363 7.86599 0.344128Z" fill="#F84C35"/>
</svg>
