<svg width="103" height="103" viewBox="0 0 103 103" fill="none" xmlns="http://www.w3.org/2000/svg">
<mask id="path-1-outside-1_43_743" maskUnits="userSpaceOnUse" x="-0.00390625" y="0.296875" width="103" height="103" fill="black">
<rect fill="white" x="-0.00390625" y="0.296875" width="103" height="103"/>
<path fill-rule="evenodd" clip-rule="evenodd" d="M63.2213 56.4165C99.7985 81.9883 81.6878 100.1 56.1163 63.5251C63.8972 107.472 38.2814 107.471 46.0641 63.5216C20.4914 100.101 2.37841 81.9894 38.9559 56.417C-4.99053 64.198 -4.99052 38.5833 38.956 46.3643C2.37841 20.7919 20.4914 2.6801 46.0641 39.2597C38.2814 -4.68956 63.8972 -4.69073 56.1163 39.2562C81.6878 2.68105 99.7985 20.7929 63.2213 46.3648C107.171 38.5822 107.171 64.1991 63.2213 56.4165Z"/>
</mask>
<path fill-rule="evenodd" clip-rule="evenodd" d="M63.2213 56.4165C99.7985 81.9883 81.6878 100.1 56.1163 63.5251C63.8972 107.472 38.2814 107.471 46.0641 63.5216C20.4914 100.101 2.37841 81.9894 38.9559 56.417C-4.99053 64.198 -4.99052 38.5833 38.956 46.3643C2.37841 20.7919 20.4914 2.6801 46.0641 39.2597C38.2814 -4.68956 63.8972 -4.69073 56.1163 39.2562C81.6878 2.68105 99.7985 20.7929 63.2213 46.3648C107.171 38.5822 107.171 64.1991 63.2213 56.4165Z" fill="#F84C35"/>
<path d="M63.2213 56.4165L64.2675 50.5084L59.7835 61.334L63.2213 56.4165ZM56.1163 63.5251L61.0336 60.0871L50.2081 64.5711L56.1163 63.5251ZM46.0641 63.5216L51.9722 64.5678L41.1466 60.0838L46.0641 63.5216ZM38.9559 56.417L42.3938 61.3344L37.9099 50.5089L38.9559 56.417ZM38.956 46.3643L37.9099 52.2724L42.3939 41.4469L38.956 46.3643ZM46.0641 39.2597L41.1466 42.6975L51.9721 38.2135L46.0641 39.2597ZM56.1163 39.2562L50.2082 38.2101L61.0336 42.6942L56.1163 39.2562ZM63.2213 46.3648L59.7834 41.4473L64.2675 52.2729L63.2213 46.3648ZM59.7835 61.334C64.1286 64.3717 67.5911 67.2499 70.2857 69.8676C72.9888 72.4936 74.8694 74.8093 76.0961 76.7111C76.7073 77.6585 77.1342 78.4694 77.42 79.1339C77.709 79.8058 77.8272 80.2666 77.8699 80.5249C77.9141 80.7928 77.8592 80.7286 77.9252 80.4329C77.9998 80.099 78.217 79.5483 78.7315 79.0337C79.2461 78.519 79.7969 78.3017 80.1309 78.227C80.4268 78.1608 80.4911 78.2158 80.2234 78.1716C79.9653 78.129 79.5046 78.0108 78.8328 77.722C78.1684 77.4362 77.3576 77.0094 76.4102 76.3983C74.5086 75.1718 72.193 73.2915 69.5671 70.5886C66.9494 67.8943 64.0714 64.432 61.0336 60.0871L51.1989 66.963C57.87 76.5048 64.3222 82.8813 69.906 86.4827C72.6735 88.2677 75.5143 89.5567 78.269 90.0114C80.9667 90.4567 84.5351 90.2012 87.2176 87.5182C89.9 84.8353 90.155 81.267 89.7095 78.5694C89.2545 75.8147 87.9654 72.974 86.1802 70.2064C82.5784 64.6225 76.2014 58.1703 66.6592 51.4991L59.7835 61.334ZM50.2081 64.5711C51.1325 69.7917 51.5455 74.2753 51.5997 78.0316C51.6541 81.7999 51.3463 84.7671 50.8688 86.9791C50.6309 88.0811 50.3594 88.9563 50.0916 89.6282C49.8208 90.3075 49.5786 90.7169 49.4261 90.9296C49.2681 91.1501 49.2747 91.0658 49.5306 90.9034C49.8196 90.72 50.3626 90.4843 51.0903 90.4844C51.8179 90.4845 52.3608 90.7203 52.6494 90.9036C52.9051 91.0659 52.9116 91.1501 52.7534 90.9293C52.6009 90.7164 52.3586 90.3068 52.0878 89.6273C51.8199 88.9553 51.5485 88.0799 51.3106 86.9777C50.8332 84.7653 50.5255 81.7978 50.58 78.0293C50.6344 74.2726 51.0476 69.7887 51.9722 64.5678L40.156 62.4753C38.1257 73.9408 38.1789 83.0131 39.5806 89.5088C40.2753 92.7284 41.3726 95.6488 42.9989 97.9185C44.5914 100.141 47.2949 102.484 51.0887 102.484C54.8827 102.485 57.5869 100.143 59.1798 97.92C60.8063 95.6505 61.9038 92.7302 62.5987 89.5109C64.0006 83.0157 64.0543 73.9439 62.0244 62.479L50.2081 64.5711ZM41.1466 60.0838C38.1087 64.4292 35.2304 67.892 32.6126 70.5867C29.9865 73.29 27.6707 75.1708 25.7688 76.3976C24.8213 77.0088 24.0104 77.4358 23.3459 77.7216C22.6739 78.0106 22.2131 78.1289 21.9547 78.1716C21.6868 78.2158 21.751 78.1609 22.0467 78.2269C22.3805 78.3015 22.9313 78.5187 23.4459 79.0332C23.9606 79.5478 24.1779 80.0986 24.2526 80.4326C24.3187 80.7285 24.2638 80.7928 24.308 80.5251C24.3506 80.2669 24.4688 79.8061 24.7577 79.1343C25.0434 78.4698 25.4703 77.6591 26.0814 76.7116C27.308 74.8099 29.1885 72.4942 31.8916 69.8681C34.5861 67.2504 38.0486 64.3722 42.3938 61.3344L35.518 51.4996C25.9757 58.1709 19.5988 64.6233 15.9971 70.2072C14.212 72.9748 12.923 75.8157 12.4682 78.5705C12.0228 81.2682 12.2783 84.8367 14.9614 87.5193C17.6444 90.2018 21.2128 90.4567 23.9104 90.0111C26.6651 89.5561 29.506 88.2669 32.2736 86.4816C37.8577 82.8795 44.3102 76.5022 50.9816 66.9594L41.1466 60.0838ZM37.9099 50.5089C32.6893 51.4332 28.2057 51.8463 24.4494 51.9005C20.6811 51.9549 17.714 51.6471 15.5019 51.1697C14.3998 50.9318 13.5246 50.6603 12.8526 50.3925C12.1733 50.1217 11.7638 49.8795 11.551 49.727C11.3304 49.5689 11.4147 49.5754 11.577 49.8312C11.7603 50.1201 11.9961 50.663 11.9961 51.3906C11.9961 52.1183 11.7603 52.6612 11.577 52.95C11.4147 53.2059 11.3304 53.2124 11.551 53.0543C11.7638 52.9018 12.1733 52.6596 12.8526 52.3888C13.5246 52.1209 14.3998 51.8495 15.5019 51.6116C17.714 51.1342 20.6811 50.8264 24.4494 50.8808C28.2058 50.935 32.6893 51.3481 37.9099 52.2724L40.002 40.4562C28.5373 38.4263 19.4656 38.4798 12.9703 39.8817C9.75093 40.5765 6.83067 41.6739 4.56113 43.3003C2.33857 44.893 -0.00390267 47.5968 -0.00390601 51.3906C-0.00390935 55.1845 2.33856 57.8883 4.56112 59.481C6.83066 61.1074 9.75092 62.2048 12.9702 62.8996C19.4656 64.3015 28.5373 64.355 40.002 62.3251L37.9099 50.5089ZM42.3939 41.4469C38.0487 38.4091 34.5861 35.5309 31.8916 32.9131C29.1886 30.2871 27.308 27.9714 26.0814 26.0697C25.4703 25.1222 25.0434 24.3114 24.7577 23.647C24.4688 22.9751 24.3506 22.5144 24.308 22.2562C24.2638 21.9884 24.3187 22.0528 24.2526 22.3486C24.1779 22.6827 23.9606 23.2335 23.4459 23.748C22.9313 24.2626 22.3805 24.4798 22.0467 24.5544C21.751 24.6204 21.6868 24.5654 21.9547 24.6097C22.2131 24.6524 22.6739 24.7706 23.3459 25.0596C24.0104 25.3455 24.8213 25.7725 25.7688 26.3837C27.6707 27.6105 29.9865 29.4912 32.6126 32.1945C35.2304 34.8893 38.1087 38.352 41.1466 42.6975L50.9815 35.8219C44.3102 26.2791 37.8577 19.9017 32.2736 16.2996C29.506 14.5143 26.6651 13.2252 23.9104 12.7701C21.2128 12.3245 17.6444 12.5795 14.9614 15.262C12.2783 17.9446 12.0228 21.513 12.4682 24.2108C12.923 26.9656 14.212 29.8064 15.9971 32.5741C19.5988 38.158 25.9757 44.6104 35.5181 51.2817L42.3939 41.4469ZM51.9721 38.2135C51.0476 32.9925 50.6344 28.5087 50.58 24.752C50.5255 20.9834 50.8332 18.016 51.3106 15.8036C51.5484 14.7014 51.8199 13.826 52.0878 13.1539C52.3586 12.4744 52.6009 12.0649 52.7534 11.852C52.9116 11.6312 52.9051 11.7154 52.6494 11.8777C52.3608 12.0609 51.8179 12.2968 51.0903 12.2969C50.3626 12.297 49.8196 12.0613 49.5306 11.8779C49.2747 11.7155 49.2681 11.6312 49.4261 11.8517C49.5786 12.0644 49.8208 12.4738 50.0916 13.1531C50.3594 13.825 50.6309 14.7001 50.8688 15.8022C51.3463 18.0142 51.6541 20.9813 51.5997 24.7496C51.5455 28.5059 51.1325 32.9895 50.2082 38.2101L62.0244 40.3022C64.0543 28.8374 64.0006 19.7656 62.5987 13.2703C61.9038 10.051 60.8063 7.13078 59.1798 4.86129C57.5869 2.63872 54.8827 0.296379 51.0887 0.296875C47.2949 0.297372 44.5914 2.64014 42.9989 4.86279C41.3726 7.13248 40.2753 10.0529 39.5806 13.2725C38.1789 19.7682 38.1257 28.8405 40.156 40.3059L51.9721 38.2135ZM61.0336 42.6942C64.0714 38.3493 66.9494 34.887 69.5671 32.1927C72.193 29.4898 74.5086 27.6094 76.4102 26.3829C77.3576 25.7719 78.1684 25.345 78.8328 25.0593C79.5046 24.7704 79.9653 24.6523 80.2234 24.6096C80.4911 24.5655 80.4268 24.6204 80.1309 24.5543C79.7969 24.4796 79.2461 24.2623 78.7315 23.7476C78.217 23.233 77.9998 22.6822 77.9252 22.3484C77.8592 22.0527 77.9141 21.9885 77.8699 22.2564C77.8272 22.5147 77.709 22.9755 77.42 23.6474C77.1342 24.3119 76.7073 25.1228 76.0961 26.0702C74.8694 27.972 72.9888 30.2877 70.2857 32.9137C67.5911 35.5314 64.1286 38.4096 59.7834 41.4473L66.6592 51.2822C76.2014 44.611 82.5784 38.1588 86.1802 32.5749C87.9654 29.8073 89.2545 26.9665 89.7095 24.2119C90.155 21.5143 89.9 17.946 87.2176 15.2631C84.5351 12.5801 80.9667 12.3246 78.269 12.7699C75.5143 13.2246 72.6735 14.5135 69.906 16.2985C64.3222 19.9 57.87 26.2765 51.1989 35.8182L61.0336 42.6942ZM64.2675 52.2729C69.4885 51.3483 73.9724 50.9351 77.729 50.8808C81.4976 50.8263 84.4651 51.1341 86.6774 51.6115C87.7795 51.8493 88.6548 52.1208 89.3269 52.3887C90.0063 52.6595 90.4158 52.9018 90.6286 53.0543C90.8493 53.2124 90.7651 53.2059 90.6027 52.9501C90.4194 52.6613 90.1836 52.1183 90.1836 51.3906C90.1836 50.663 90.4194 50.12 90.6027 49.8312C90.7651 49.5754 90.8493 49.5689 90.6286 49.727C90.4158 49.8795 90.0063 50.1218 89.3269 50.3926C88.6549 50.6604 87.7796 50.9319 86.6774 51.1698C84.4651 51.6472 81.4976 51.9549 77.729 51.9005C73.9724 51.8462 69.4885 51.433 64.2675 50.5084L62.1751 62.3246C73.6407 64.3549 82.713 64.3016 89.2087 62.8998C92.4283 62.205 95.3487 61.1076 97.6183 59.4812C99.841 57.8885 102.184 55.1846 102.184 51.3906C102.184 47.5967 99.841 44.8928 97.6183 43.3001C95.3487 41.6737 92.4283 40.5763 89.2087 39.8815C82.713 38.4797 73.6407 38.4264 62.1751 40.4567L64.2675 52.2729Z" fill="#E8E2D6" mask="url(#path-1-outside-1_43_743)"/>
</svg>
